<mxfile host="app.diagrams.net" agent="Mozilla/5.0 (Windows NT 10.0; Win64; x64) AppleWebKit/537.36 (KHTML, like Gecko) Chrome/136.0.0.0 Safari/537.36" version="27.0.3" pages="6">
  <diagram name="Ученые" id="FSosY_zkdnKM43KHwlH2">
    <mxGraphModel grid="1" page="1" gridSize="10" guides="1" tooltips="1" connect="1" arrows="1" fold="1" pageScale="1" pageWidth="1169" pageHeight="1654" math="0" shadow="0">
      <root>
        <mxCell id="0" />
        <mxCell id="1" parent="0" />
        <mxCell id="dS2dpylNjVhKYefOZfNk-1" value="" style="group" connectable="0" vertex="1" parent="1">
          <mxGeometry x="150" y="120" width="870" height="490" as="geometry" />
        </mxCell>
        <mxCell id="W0reyf94FO2SUg-HXVsW-17" value="" style="group" connectable="0" vertex="1" parent="dS2dpylNjVhKYefOZfNk-1">
          <mxGeometry x="760" width="110" height="110" as="geometry" />
        </mxCell>
        <mxCell id="W0reyf94FO2SUg-HXVsW-18" value="&lt;font style=&quot;font-size: 14px;&quot;&gt;Чарльз Дарвин&lt;/font&gt;" style="ellipse;whiteSpace=wrap;html=1;aspect=fixed;" vertex="1" parent="W0reyf94FO2SUg-HXVsW-17">
          <mxGeometry width="110" height="110" as="geometry" />
        </mxCell>
        <mxCell id="W0reyf94FO2SUg-HXVsW-19" value="&lt;font style=&quot;font-size: 18px;&quot;&gt;5&lt;/font&gt;" style="ellipse;whiteSpace=wrap;html=1;aspect=fixed;" vertex="1" parent="W0reyf94FO2SUg-HXVsW-17">
          <mxGeometry x="35" width="40" height="40" as="geometry" />
        </mxCell>
        <mxCell id="W0reyf94FO2SUg-HXVsW-29" value="" style="group" connectable="0" vertex="1" parent="dS2dpylNjVhKYefOZfNk-1">
          <mxGeometry y="190" width="110" height="110" as="geometry" />
        </mxCell>
        <mxCell id="W0reyf94FO2SUg-HXVsW-30" value="&lt;font style=&quot;font-size: 14px;&quot;&gt;Дмитрий Менделеев&lt;/font&gt;" style="ellipse;whiteSpace=wrap;html=1;aspect=fixed;" vertex="1" parent="W0reyf94FO2SUg-HXVsW-29">
          <mxGeometry width="110" height="110" as="geometry" />
        </mxCell>
        <mxCell id="W0reyf94FO2SUg-HXVsW-31" value="&lt;font style=&quot;font-size: 18px;&quot;&gt;6&lt;/font&gt;" style="ellipse;whiteSpace=wrap;html=1;aspect=fixed;" vertex="1" parent="W0reyf94FO2SUg-HXVsW-29">
          <mxGeometry x="35" width="40" height="40" as="geometry" />
        </mxCell>
        <mxCell id="W0reyf94FO2SUg-HXVsW-32" value="" style="group" connectable="0" vertex="1" parent="dS2dpylNjVhKYefOZfNk-1">
          <mxGeometry x="190" y="190" width="110" height="110" as="geometry" />
        </mxCell>
        <mxCell id="W0reyf94FO2SUg-HXVsW-33" value="&lt;font style=&quot;font-size: 14px;&quot;&gt;Галилео Галилей&lt;/font&gt;" style="ellipse;whiteSpace=wrap;html=1;aspect=fixed;" vertex="1" parent="W0reyf94FO2SUg-HXVsW-32">
          <mxGeometry width="110" height="110" as="geometry" />
        </mxCell>
        <mxCell id="W0reyf94FO2SUg-HXVsW-34" value="&lt;font style=&quot;font-size: 18px;&quot;&gt;7&lt;/font&gt;" style="ellipse;whiteSpace=wrap;html=1;aspect=fixed;" vertex="1" parent="W0reyf94FO2SUg-HXVsW-32">
          <mxGeometry x="35" width="40" height="40" as="geometry" />
        </mxCell>
        <mxCell id="W0reyf94FO2SUg-HXVsW-35" value="" style="group" connectable="0" vertex="1" parent="dS2dpylNjVhKYefOZfNk-1">
          <mxGeometry x="379" y="190" width="110" height="110" as="geometry" />
        </mxCell>
        <mxCell id="W0reyf94FO2SUg-HXVsW-36" value="&lt;font style=&quot;font-size: 14px;&quot;&gt;Стивен Хокинг&lt;/font&gt;" style="ellipse;whiteSpace=wrap;html=1;aspect=fixed;" vertex="1" parent="W0reyf94FO2SUg-HXVsW-35">
          <mxGeometry width="110" height="110" as="geometry" />
        </mxCell>
        <mxCell id="W0reyf94FO2SUg-HXVsW-37" value="&lt;font style=&quot;font-size: 18px;&quot;&gt;8&lt;/font&gt;" style="ellipse;whiteSpace=wrap;html=1;aspect=fixed;" vertex="1" parent="W0reyf94FO2SUg-HXVsW-35">
          <mxGeometry x="35" width="40" height="40" as="geometry" />
        </mxCell>
        <mxCell id="W0reyf94FO2SUg-HXVsW-50" value="" style="group" connectable="0" vertex="1" parent="dS2dpylNjVhKYefOZfNk-1">
          <mxGeometry x="570" y="190" width="110" height="110" as="geometry" />
        </mxCell>
        <mxCell id="W0reyf94FO2SUg-HXVsW-51" value="&lt;font style=&quot;font-size: 14px;&quot;&gt;Розалинд Франклин&lt;/font&gt;" style="ellipse;whiteSpace=wrap;html=1;aspect=fixed;" vertex="1" parent="W0reyf94FO2SUg-HXVsW-50">
          <mxGeometry width="110" height="110" as="geometry" />
        </mxCell>
        <mxCell id="W0reyf94FO2SUg-HXVsW-52" value="&lt;font style=&quot;font-size: 18px;&quot;&gt;9&lt;/font&gt;" style="ellipse;whiteSpace=wrap;html=1;aspect=fixed;" vertex="1" parent="W0reyf94FO2SUg-HXVsW-50">
          <mxGeometry x="35" width="40" height="40" as="geometry" />
        </mxCell>
        <mxCell id="W0reyf94FO2SUg-HXVsW-53" value="" style="group" connectable="0" vertex="1" parent="dS2dpylNjVhKYefOZfNk-1">
          <mxGeometry x="760" y="190" width="110" height="110" as="geometry" />
        </mxCell>
        <mxCell id="W0reyf94FO2SUg-HXVsW-54" value="&lt;font style=&quot;font-size: 14px;&quot;&gt;Нильс Бор&lt;/font&gt;" style="ellipse;whiteSpace=wrap;html=1;aspect=fixed;" vertex="1" parent="W0reyf94FO2SUg-HXVsW-53">
          <mxGeometry width="110" height="110" as="geometry" />
        </mxCell>
        <mxCell id="W0reyf94FO2SUg-HXVsW-55" value="&lt;font style=&quot;font-size: 18px;&quot;&gt;10&lt;/font&gt;" style="ellipse;whiteSpace=wrap;html=1;aspect=fixed;" vertex="1" parent="W0reyf94FO2SUg-HXVsW-53">
          <mxGeometry x="35" width="40" height="40" as="geometry" />
        </mxCell>
        <mxCell id="W0reyf94FO2SUg-HXVsW-56" value="" style="group" connectable="0" vertex="1" parent="dS2dpylNjVhKYefOZfNk-1">
          <mxGeometry x="379" y="380" width="110" height="110" as="geometry" />
        </mxCell>
        <mxCell id="W0reyf94FO2SUg-HXVsW-57" value="&lt;font style=&quot;font-size: 14px;&quot;&gt;Рихард Фейнман&lt;/font&gt;" style="ellipse;whiteSpace=wrap;html=1;aspect=fixed;" vertex="1" parent="W0reyf94FO2SUg-HXVsW-56">
          <mxGeometry width="110" height="110" as="geometry" />
        </mxCell>
        <mxCell id="W0reyf94FO2SUg-HXVsW-58" value="&lt;font style=&quot;font-size: 18px;&quot;&gt;11&lt;/font&gt;" style="ellipse;whiteSpace=wrap;html=1;aspect=fixed;" vertex="1" parent="W0reyf94FO2SUg-HXVsW-56">
          <mxGeometry x="35" width="40" height="40" as="geometry" />
        </mxCell>
        <mxCell id="W0reyf94FO2SUg-HXVsW-4" value="" style="group" connectable="0" vertex="1" parent="dS2dpylNjVhKYefOZfNk-1">
          <mxGeometry width="110" height="110" as="geometry" />
        </mxCell>
        <mxCell id="W0reyf94FO2SUg-HXVsW-1" value="&lt;font style=&quot;font-size: 14px;&quot;&gt;Альберт Эйнштейн&lt;/font&gt;" style="ellipse;whiteSpace=wrap;html=1;aspect=fixed;" vertex="1" parent="W0reyf94FO2SUg-HXVsW-4">
          <mxGeometry width="110" height="110" as="geometry" />
        </mxCell>
        <mxCell id="W0reyf94FO2SUg-HXVsW-2" value="&lt;font style=&quot;font-size: 18px;&quot;&gt;1&lt;/font&gt;" style="ellipse;whiteSpace=wrap;html=1;aspect=fixed;" vertex="1" parent="W0reyf94FO2SUg-HXVsW-4">
          <mxGeometry x="35" width="40" height="40" as="geometry" />
        </mxCell>
        <mxCell id="W0reyf94FO2SUg-HXVsW-5" value="" style="group" connectable="0" vertex="1" parent="dS2dpylNjVhKYefOZfNk-1">
          <mxGeometry x="190" width="110" height="110" as="geometry" />
        </mxCell>
        <mxCell id="W0reyf94FO2SUg-HXVsW-6" value="&lt;font style=&quot;font-size: 14px;&quot;&gt;Мария Кюри&lt;/font&gt;" style="ellipse;whiteSpace=wrap;html=1;aspect=fixed;" vertex="1" parent="W0reyf94FO2SUg-HXVsW-5">
          <mxGeometry width="110" height="110" as="geometry" />
        </mxCell>
        <mxCell id="W0reyf94FO2SUg-HXVsW-7" value="&lt;font style=&quot;font-size: 18px;&quot;&gt;2&lt;/font&gt;" style="ellipse;whiteSpace=wrap;html=1;aspect=fixed;" vertex="1" parent="W0reyf94FO2SUg-HXVsW-5">
          <mxGeometry x="35" width="40" height="40" as="geometry" />
        </mxCell>
        <mxCell id="W0reyf94FO2SUg-HXVsW-8" value="" style="group" connectable="0" vertex="1" parent="dS2dpylNjVhKYefOZfNk-1">
          <mxGeometry x="380" width="110" height="110" as="geometry" />
        </mxCell>
        <mxCell id="W0reyf94FO2SUg-HXVsW-9" value="&lt;span style=&quot;font-size: 14px;&quot;&gt;Никола Тесла&lt;/span&gt;" style="ellipse;whiteSpace=wrap;html=1;aspect=fixed;" vertex="1" parent="W0reyf94FO2SUg-HXVsW-8">
          <mxGeometry width="110" height="110" as="geometry" />
        </mxCell>
        <mxCell id="W0reyf94FO2SUg-HXVsW-10" value="&lt;font style=&quot;font-size: 18px;&quot;&gt;3&lt;/font&gt;" style="ellipse;whiteSpace=wrap;html=1;aspect=fixed;" vertex="1" parent="W0reyf94FO2SUg-HXVsW-8">
          <mxGeometry x="35" width="40" height="40" as="geometry" />
        </mxCell>
        <mxCell id="W0reyf94FO2SUg-HXVsW-11" value="" style="group" connectable="0" vertex="1" parent="dS2dpylNjVhKYefOZfNk-1">
          <mxGeometry x="570" width="110" height="110" as="geometry" />
        </mxCell>
        <mxCell id="W0reyf94FO2SUg-HXVsW-12" value="&lt;font style=&quot;font-size: 14px;&quot;&gt;Исаак Ньютон&lt;/font&gt;" style="ellipse;whiteSpace=wrap;html=1;aspect=fixed;" vertex="1" parent="W0reyf94FO2SUg-HXVsW-11">
          <mxGeometry width="110" height="110" as="geometry" />
        </mxCell>
        <mxCell id="W0reyf94FO2SUg-HXVsW-13" value="&lt;font style=&quot;font-size: 18px;&quot;&gt;4&lt;/font&gt;" style="ellipse;whiteSpace=wrap;html=1;aspect=fixed;" vertex="1" parent="W0reyf94FO2SUg-HXVsW-11">
          <mxGeometry x="35" width="40" height="40" as="geometry" />
        </mxCell>
      </root>
    </mxGraphModel>
  </diagram>
  <diagram id="CyqOXjldwTWYkoTip8ke" name="Открытия">
    <mxGraphModel grid="1" page="1" gridSize="10" guides="1" tooltips="1" connect="1" arrows="1" fold="1" pageScale="1" pageWidth="1169" pageHeight="1654" math="0" shadow="0">
      <root>
        <mxCell id="0" />
        <mxCell id="1" parent="0" />
        <mxCell id="yKNImNpj4s1Ma0gEtTXq-1" value="" style="group" connectable="0" vertex="1" parent="1">
          <mxGeometry x="130" y="80" width="950" height="540" as="geometry" />
        </mxCell>
        <mxCell id="FtanLPU5uLY7INzYZFFX-3" value="" style="group" connectable="0" vertex="1" parent="yKNImNpj4s1Ma0gEtTXq-1">
          <mxGeometry width="220" height="150" as="geometry" />
        </mxCell>
        <mxCell id="FtanLPU5uLY7INzYZFFX-1" value="&lt;font style=&quot;font-size: 18px;&quot;&gt;Теория&amp;nbsp;&lt;/font&gt;&lt;div&gt;&lt;font style=&quot;font-size: 18px;&quot;&gt;относительности&lt;/font&gt;&lt;/div&gt;" style="ellipse;shape=cloud;whiteSpace=wrap;html=1;" vertex="1" parent="FtanLPU5uLY7INzYZFFX-3">
          <mxGeometry width="220" height="150" as="geometry" />
        </mxCell>
        <mxCell id="FtanLPU5uLY7INzYZFFX-2" value="&lt;font style=&quot;font-size: 18px;&quot;&gt;1&lt;/font&gt;" style="ellipse;shape=cloud;whiteSpace=wrap;html=1;" vertex="1" parent="FtanLPU5uLY7INzYZFFX-3">
          <mxGeometry x="50" width="85" height="60" as="geometry" />
        </mxCell>
        <mxCell id="FtanLPU5uLY7INzYZFFX-8" value="" style="group" connectable="0" vertex="1" parent="yKNImNpj4s1Ma0gEtTXq-1">
          <mxGeometry x="250" width="220" height="150" as="geometry" />
        </mxCell>
        <mxCell id="FtanLPU5uLY7INzYZFFX-9" value="&lt;font style=&quot;font-size: 18px;&quot;&gt;Радиоактивность&lt;/font&gt;" style="ellipse;shape=cloud;whiteSpace=wrap;html=1;" vertex="1" parent="FtanLPU5uLY7INzYZFFX-8">
          <mxGeometry width="220" height="150" as="geometry" />
        </mxCell>
        <mxCell id="FtanLPU5uLY7INzYZFFX-10" value="&lt;font style=&quot;font-size: 18px;&quot;&gt;2&lt;/font&gt;" style="ellipse;shape=cloud;whiteSpace=wrap;html=1;" vertex="1" parent="FtanLPU5uLY7INzYZFFX-8">
          <mxGeometry x="50" width="85" height="60" as="geometry" />
        </mxCell>
        <mxCell id="FtanLPU5uLY7INzYZFFX-11" value="" style="group" connectable="0" vertex="1" parent="yKNImNpj4s1Ma0gEtTXq-1">
          <mxGeometry x="490" width="220" height="150" as="geometry" />
        </mxCell>
        <mxCell id="FtanLPU5uLY7INzYZFFX-12" value="&lt;font style=&quot;font-size: 18px;&quot;&gt;Переменный ток&lt;/font&gt;" style="ellipse;shape=cloud;whiteSpace=wrap;html=1;" vertex="1" parent="FtanLPU5uLY7INzYZFFX-11">
          <mxGeometry width="220" height="150" as="geometry" />
        </mxCell>
        <mxCell id="FtanLPU5uLY7INzYZFFX-13" value="&lt;font style=&quot;font-size: 18px;&quot;&gt;3&lt;/font&gt;" style="ellipse;shape=cloud;whiteSpace=wrap;html=1;" vertex="1" parent="FtanLPU5uLY7INzYZFFX-11">
          <mxGeometry x="50" width="85" height="60" as="geometry" />
        </mxCell>
        <mxCell id="FtanLPU5uLY7INzYZFFX-14" value="" style="group" connectable="0" vertex="1" parent="yKNImNpj4s1Ma0gEtTXq-1">
          <mxGeometry x="730" width="220" height="150" as="geometry" />
        </mxCell>
        <mxCell id="FtanLPU5uLY7INzYZFFX-15" value="&lt;font style=&quot;font-size: 18px;&quot;&gt;Закон всемирного тяготения&lt;/font&gt;" style="ellipse;shape=cloud;whiteSpace=wrap;html=1;" vertex="1" parent="FtanLPU5uLY7INzYZFFX-14">
          <mxGeometry width="220" height="150" as="geometry" />
        </mxCell>
        <mxCell id="FtanLPU5uLY7INzYZFFX-16" value="&lt;font style=&quot;font-size: 18px;&quot;&gt;4&lt;/font&gt;" style="ellipse;shape=cloud;whiteSpace=wrap;html=1;" vertex="1" parent="FtanLPU5uLY7INzYZFFX-14">
          <mxGeometry x="50" width="85" height="60" as="geometry" />
        </mxCell>
        <mxCell id="FtanLPU5uLY7INzYZFFX-17" value="" style="group" connectable="0" vertex="1" parent="yKNImNpj4s1Ma0gEtTXq-1">
          <mxGeometry y="200" width="220" height="150" as="geometry" />
        </mxCell>
        <mxCell id="FtanLPU5uLY7INzYZFFX-18" value="&lt;font style=&quot;font-size: 18px;&quot;&gt;Теория эволюции&lt;/font&gt;" style="ellipse;shape=cloud;whiteSpace=wrap;html=1;" vertex="1" parent="FtanLPU5uLY7INzYZFFX-17">
          <mxGeometry width="220" height="150" as="geometry" />
        </mxCell>
        <mxCell id="FtanLPU5uLY7INzYZFFX-19" value="&lt;font style=&quot;font-size: 18px;&quot;&gt;5&lt;/font&gt;" style="ellipse;shape=cloud;whiteSpace=wrap;html=1;" vertex="1" parent="FtanLPU5uLY7INzYZFFX-17">
          <mxGeometry x="50" width="85" height="60" as="geometry" />
        </mxCell>
        <mxCell id="FtanLPU5uLY7INzYZFFX-20" value="" style="group" connectable="0" vertex="1" parent="yKNImNpj4s1Ma0gEtTXq-1">
          <mxGeometry x="250" y="200" width="220" height="150" as="geometry" />
        </mxCell>
        <mxCell id="FtanLPU5uLY7INzYZFFX-21" value="&lt;font style=&quot;font-size: 18px;&quot;&gt;Периодическая&amp;nbsp;&lt;/font&gt;&lt;div&gt;&lt;font style=&quot;font-size: 18px;&quot;&gt;таблица&lt;/font&gt;&lt;/div&gt;" style="ellipse;shape=cloud;whiteSpace=wrap;html=1;" vertex="1" parent="FtanLPU5uLY7INzYZFFX-20">
          <mxGeometry width="220" height="150" as="geometry" />
        </mxCell>
        <mxCell id="FtanLPU5uLY7INzYZFFX-22" value="&lt;font style=&quot;font-size: 18px;&quot;&gt;6&lt;/font&gt;" style="ellipse;shape=cloud;whiteSpace=wrap;html=1;" vertex="1" parent="FtanLPU5uLY7INzYZFFX-20">
          <mxGeometry x="50" width="85" height="60" as="geometry" />
        </mxCell>
        <mxCell id="FtanLPU5uLY7INzYZFFX-23" value="" style="group" connectable="0" vertex="1" parent="yKNImNpj4s1Ma0gEtTXq-1">
          <mxGeometry x="500" y="200" width="220" height="150" as="geometry" />
        </mxCell>
        <mxCell id="FtanLPU5uLY7INzYZFFX-24" value="&lt;font style=&quot;font-size: 18px;&quot;&gt;Гелиоцентризм&lt;/font&gt;" style="ellipse;shape=cloud;whiteSpace=wrap;html=1;" vertex="1" parent="FtanLPU5uLY7INzYZFFX-23">
          <mxGeometry width="220" height="150" as="geometry" />
        </mxCell>
        <mxCell id="FtanLPU5uLY7INzYZFFX-25" value="&lt;font style=&quot;font-size: 18px;&quot;&gt;7&lt;/font&gt;" style="ellipse;shape=cloud;whiteSpace=wrap;html=1;" vertex="1" parent="FtanLPU5uLY7INzYZFFX-23">
          <mxGeometry x="50" width="85" height="60" as="geometry" />
        </mxCell>
        <mxCell id="FtanLPU5uLY7INzYZFFX-26" value="" style="group" connectable="0" vertex="1" parent="yKNImNpj4s1Ma0gEtTXq-1">
          <mxGeometry x="730" y="200" width="220" height="150" as="geometry" />
        </mxCell>
        <mxCell id="FtanLPU5uLY7INzYZFFX-27" value="&lt;font style=&quot;font-size: 18px;&quot;&gt;Излучение Хокинга&lt;/font&gt;" style="ellipse;shape=cloud;whiteSpace=wrap;html=1;" vertex="1" parent="FtanLPU5uLY7INzYZFFX-26">
          <mxGeometry width="220" height="150" as="geometry" />
        </mxCell>
        <mxCell id="FtanLPU5uLY7INzYZFFX-28" value="&lt;font style=&quot;font-size: 18px;&quot;&gt;8&lt;/font&gt;" style="ellipse;shape=cloud;whiteSpace=wrap;html=1;" vertex="1" parent="FtanLPU5uLY7INzYZFFX-26">
          <mxGeometry x="50" width="85" height="60" as="geometry" />
        </mxCell>
        <mxCell id="FtanLPU5uLY7INzYZFFX-29" value="" style="group" connectable="0" vertex="1" parent="yKNImNpj4s1Ma0gEtTXq-1">
          <mxGeometry x="10" y="390" width="220" height="150" as="geometry" />
        </mxCell>
        <mxCell id="FtanLPU5uLY7INzYZFFX-30" value="&lt;font style=&quot;font-size: 18px;&quot;&gt;Структура ДНК&lt;/font&gt;" style="ellipse;shape=cloud;whiteSpace=wrap;html=1;" vertex="1" parent="FtanLPU5uLY7INzYZFFX-29">
          <mxGeometry width="220" height="150" as="geometry" />
        </mxCell>
        <mxCell id="FtanLPU5uLY7INzYZFFX-31" value="&lt;font style=&quot;font-size: 18px;&quot;&gt;9&lt;/font&gt;" style="ellipse;shape=cloud;whiteSpace=wrap;html=1;" vertex="1" parent="FtanLPU5uLY7INzYZFFX-29">
          <mxGeometry x="50" width="85" height="60" as="geometry" />
        </mxCell>
        <mxCell id="FtanLPU5uLY7INzYZFFX-32" value="" style="group" connectable="0" vertex="1" parent="yKNImNpj4s1Ma0gEtTXq-1">
          <mxGeometry x="250" y="390" width="220" height="150" as="geometry" />
        </mxCell>
        <mxCell id="FtanLPU5uLY7INzYZFFX-33" value="&lt;font style=&quot;font-size: 18px;&quot;&gt;Модель атома&lt;/font&gt;" style="ellipse;shape=cloud;whiteSpace=wrap;html=1;" vertex="1" parent="FtanLPU5uLY7INzYZFFX-32">
          <mxGeometry width="220" height="150" as="geometry" />
        </mxCell>
        <mxCell id="FtanLPU5uLY7INzYZFFX-34" value="&lt;font style=&quot;font-size: 18px;&quot;&gt;10&lt;/font&gt;" style="ellipse;shape=cloud;whiteSpace=wrap;html=1;" vertex="1" parent="FtanLPU5uLY7INzYZFFX-32">
          <mxGeometry x="50" width="85" height="60" as="geometry" />
        </mxCell>
        <mxCell id="POwvUXF15jpGilBEKkP7-3" value="" style="group" connectable="0" vertex="1" parent="yKNImNpj4s1Ma0gEtTXq-1">
          <mxGeometry x="500" y="390" width="220" height="150" as="geometry" />
        </mxCell>
        <mxCell id="POwvUXF15jpGilBEKkP7-4" value="&lt;font style=&quot;font-size: 18px;&quot;&gt;Квантовая электродинамика&lt;/font&gt;" style="ellipse;shape=cloud;whiteSpace=wrap;html=1;" vertex="1" parent="POwvUXF15jpGilBEKkP7-3">
          <mxGeometry width="220" height="150" as="geometry" />
        </mxCell>
        <mxCell id="POwvUXF15jpGilBEKkP7-5" value="&lt;font style=&quot;font-size: 18px;&quot;&gt;11&lt;/font&gt;" style="ellipse;shape=cloud;whiteSpace=wrap;html=1;" vertex="1" parent="POwvUXF15jpGilBEKkP7-3">
          <mxGeometry x="50" width="85" height="60" as="geometry" />
        </mxCell>
      </root>
    </mxGraphModel>
  </diagram>
  <diagram id="yFcLY7EISpskYWX1GzED" name="Области открытий">
    <mxGraphModel grid="1" page="1" gridSize="10" guides="1" tooltips="1" connect="1" arrows="1" fold="1" pageScale="1" pageWidth="1169" pageHeight="1654" math="0" shadow="0">
      <root>
        <mxCell id="0" />
        <mxCell id="1" parent="0" />
        <mxCell id="O7xO8HQiQ3wJAk5pu-F3-1" value="" style="group" connectable="0" vertex="1" parent="1">
          <mxGeometry x="74" y="80" width="1020" height="240" as="geometry" />
        </mxCell>
        <mxCell id="GnaGOppHM2-ejsaUhY-A-8" value="" style="group" connectable="0" vertex="1" parent="O7xO8HQiQ3wJAk5pu-F3-1">
          <mxGeometry width="140" height="80" as="geometry" />
        </mxCell>
        <mxCell id="GnaGOppHM2-ejsaUhY-A-10" value="" style="group" connectable="0" vertex="1" parent="GnaGOppHM2-ejsaUhY-A-8">
          <mxGeometry width="140" height="80" as="geometry" />
        </mxCell>
        <mxCell id="GnaGOppHM2-ejsaUhY-A-1" value="&lt;div&gt;&lt;br&gt;&lt;/div&gt;Физика" style="rounded=0;whiteSpace=wrap;html=1;" vertex="1" parent="GnaGOppHM2-ejsaUhY-A-10">
          <mxGeometry width="140" height="80" as="geometry" />
        </mxCell>
        <mxCell id="GnaGOppHM2-ejsaUhY-A-2" value="&lt;font style=&quot;font-size: 18px;&quot;&gt;1&lt;/font&gt;" style="rounded=0;whiteSpace=wrap;html=1;" vertex="1" parent="GnaGOppHM2-ejsaUhY-A-10">
          <mxGeometry x="35" width="70" height="30" as="geometry" />
        </mxCell>
        <mxCell id="GnaGOppHM2-ejsaUhY-A-12" value="" style="group" connectable="0" vertex="1" parent="O7xO8HQiQ3wJAk5pu-F3-1">
          <mxGeometry x="220" width="140" height="80" as="geometry" />
        </mxCell>
        <mxCell id="GnaGOppHM2-ejsaUhY-A-13" value="" style="group" connectable="0" vertex="1" parent="GnaGOppHM2-ejsaUhY-A-12">
          <mxGeometry width="140" height="80" as="geometry" />
        </mxCell>
        <mxCell id="GnaGOppHM2-ejsaUhY-A-14" value="&lt;div&gt;&lt;br&gt;&lt;/div&gt;Химия" style="rounded=0;whiteSpace=wrap;html=1;" vertex="1" parent="GnaGOppHM2-ejsaUhY-A-13">
          <mxGeometry width="140" height="80" as="geometry" />
        </mxCell>
        <mxCell id="GnaGOppHM2-ejsaUhY-A-15" value="&lt;font style=&quot;font-size: 18px;&quot;&gt;2&lt;/font&gt;" style="rounded=0;whiteSpace=wrap;html=1;" vertex="1" parent="GnaGOppHM2-ejsaUhY-A-13">
          <mxGeometry x="35" width="70" height="30" as="geometry" />
        </mxCell>
        <mxCell id="GnaGOppHM2-ejsaUhY-A-16" value="" style="group" connectable="0" vertex="1" parent="O7xO8HQiQ3wJAk5pu-F3-1">
          <mxGeometry x="440" width="140" height="80" as="geometry" />
        </mxCell>
        <mxCell id="GnaGOppHM2-ejsaUhY-A-17" value="" style="group" connectable="0" vertex="1" parent="GnaGOppHM2-ejsaUhY-A-16">
          <mxGeometry width="140" height="80" as="geometry" />
        </mxCell>
        <mxCell id="GnaGOppHM2-ejsaUhY-A-18" value="&lt;div&gt;&lt;br&gt;&lt;/div&gt;Биология" style="rounded=0;whiteSpace=wrap;html=1;" vertex="1" parent="GnaGOppHM2-ejsaUhY-A-17">
          <mxGeometry width="140" height="80" as="geometry" />
        </mxCell>
        <mxCell id="GnaGOppHM2-ejsaUhY-A-19" value="&lt;font style=&quot;font-size: 18px;&quot;&gt;3&lt;/font&gt;" style="rounded=0;whiteSpace=wrap;html=1;" vertex="1" parent="GnaGOppHM2-ejsaUhY-A-17">
          <mxGeometry x="35" width="70" height="30" as="geometry" />
        </mxCell>
        <mxCell id="GnaGOppHM2-ejsaUhY-A-20" value="" style="group" connectable="0" vertex="1" parent="O7xO8HQiQ3wJAk5pu-F3-1">
          <mxGeometry x="660" width="140" height="80" as="geometry" />
        </mxCell>
        <mxCell id="GnaGOppHM2-ejsaUhY-A-21" value="" style="group" connectable="0" vertex="1" parent="GnaGOppHM2-ejsaUhY-A-20">
          <mxGeometry width="140" height="80" as="geometry" />
        </mxCell>
        <mxCell id="GnaGOppHM2-ejsaUhY-A-22" value="&lt;div&gt;&lt;br&gt;&lt;/div&gt;Астрономия" style="rounded=0;whiteSpace=wrap;html=1;" vertex="1" parent="GnaGOppHM2-ejsaUhY-A-21">
          <mxGeometry width="140" height="80" as="geometry" />
        </mxCell>
        <mxCell id="GnaGOppHM2-ejsaUhY-A-23" value="&lt;font style=&quot;font-size: 18px;&quot;&gt;4&lt;/font&gt;" style="rounded=0;whiteSpace=wrap;html=1;" vertex="1" parent="GnaGOppHM2-ejsaUhY-A-21">
          <mxGeometry x="35" width="70" height="30" as="geometry" />
        </mxCell>
        <mxCell id="5qJL8sJri6c3D2lMuEYC-1" value="" style="group" connectable="0" vertex="1" parent="O7xO8HQiQ3wJAk5pu-F3-1">
          <mxGeometry x="880" width="140" height="80" as="geometry" />
        </mxCell>
        <mxCell id="5qJL8sJri6c3D2lMuEYC-2" value="" style="group" connectable="0" vertex="1" parent="5qJL8sJri6c3D2lMuEYC-1">
          <mxGeometry width="140" height="80" as="geometry" />
        </mxCell>
        <mxCell id="5qJL8sJri6c3D2lMuEYC-3" value="&lt;div&gt;&lt;br&gt;&lt;/div&gt;Математика" style="rounded=0;whiteSpace=wrap;html=1;" vertex="1" parent="5qJL8sJri6c3D2lMuEYC-2">
          <mxGeometry width="140" height="80" as="geometry" />
        </mxCell>
        <mxCell id="5qJL8sJri6c3D2lMuEYC-4" value="&lt;font style=&quot;font-size: 18px;&quot;&gt;5&lt;/font&gt;" style="rounded=0;whiteSpace=wrap;html=1;" vertex="1" parent="5qJL8sJri6c3D2lMuEYC-2">
          <mxGeometry x="35" width="70" height="30" as="geometry" />
        </mxCell>
        <mxCell id="5qJL8sJri6c3D2lMuEYC-6" value="" style="group" connectable="0" vertex="1" parent="O7xO8HQiQ3wJAk5pu-F3-1">
          <mxGeometry y="160" width="140" height="80" as="geometry" />
        </mxCell>
        <mxCell id="5qJL8sJri6c3D2lMuEYC-7" value="" style="group" connectable="0" vertex="1" parent="5qJL8sJri6c3D2lMuEYC-6">
          <mxGeometry width="140" height="80" as="geometry" />
        </mxCell>
        <mxCell id="5qJL8sJri6c3D2lMuEYC-8" value="&lt;div&gt;&lt;br&gt;&lt;/div&gt;Генетика" style="rounded=0;whiteSpace=wrap;html=1;" vertex="1" parent="5qJL8sJri6c3D2lMuEYC-7">
          <mxGeometry width="140" height="80" as="geometry" />
        </mxCell>
        <mxCell id="5qJL8sJri6c3D2lMuEYC-9" value="&lt;font style=&quot;font-size: 18px;&quot;&gt;6&lt;/font&gt;" style="rounded=0;whiteSpace=wrap;html=1;" vertex="1" parent="5qJL8sJri6c3D2lMuEYC-7">
          <mxGeometry x="35" width="70" height="30" as="geometry" />
        </mxCell>
        <mxCell id="5qJL8sJri6c3D2lMuEYC-10" value="" style="group" connectable="0" vertex="1" parent="O7xO8HQiQ3wJAk5pu-F3-1">
          <mxGeometry x="220" y="160" width="140" height="80" as="geometry" />
        </mxCell>
        <mxCell id="5qJL8sJri6c3D2lMuEYC-11" value="" style="group" connectable="0" vertex="1" parent="5qJL8sJri6c3D2lMuEYC-10">
          <mxGeometry width="140" height="80" as="geometry" />
        </mxCell>
        <mxCell id="5qJL8sJri6c3D2lMuEYC-12" value="&lt;div&gt;&lt;br&gt;&lt;/div&gt;Квантовая механика" style="rounded=0;whiteSpace=wrap;html=1;" vertex="1" parent="5qJL8sJri6c3D2lMuEYC-11">
          <mxGeometry width="140" height="80" as="geometry" />
        </mxCell>
        <mxCell id="5qJL8sJri6c3D2lMuEYC-13" value="&lt;font style=&quot;font-size: 18px;&quot;&gt;7&lt;/font&gt;" style="rounded=0;whiteSpace=wrap;html=1;" vertex="1" parent="5qJL8sJri6c3D2lMuEYC-11">
          <mxGeometry x="35" width="70" height="30" as="geometry" />
        </mxCell>
        <mxCell id="5qJL8sJri6c3D2lMuEYC-14" value="" style="group" connectable="0" vertex="1" parent="O7xO8HQiQ3wJAk5pu-F3-1">
          <mxGeometry x="441" y="160" width="140" height="80" as="geometry" />
        </mxCell>
        <mxCell id="5qJL8sJri6c3D2lMuEYC-15" value="" style="group" connectable="0" vertex="1" parent="5qJL8sJri6c3D2lMuEYC-14">
          <mxGeometry width="140" height="80" as="geometry" />
        </mxCell>
        <mxCell id="5qJL8sJri6c3D2lMuEYC-16" value="&lt;div&gt;&lt;br&gt;&lt;/div&gt;Электродинамика" style="rounded=0;whiteSpace=wrap;html=1;" vertex="1" parent="5qJL8sJri6c3D2lMuEYC-15">
          <mxGeometry width="140" height="80" as="geometry" />
        </mxCell>
        <mxCell id="5qJL8sJri6c3D2lMuEYC-17" value="&lt;span style=&quot;font-size: 18px;&quot;&gt;8&lt;/span&gt;" style="rounded=0;whiteSpace=wrap;html=1;" vertex="1" parent="5qJL8sJri6c3D2lMuEYC-15">
          <mxGeometry x="35" width="70" height="30" as="geometry" />
        </mxCell>
        <mxCell id="5qJL8sJri6c3D2lMuEYC-18" value="" style="group" connectable="0" vertex="1" parent="O7xO8HQiQ3wJAk5pu-F3-1">
          <mxGeometry x="660" y="160" width="140" height="80" as="geometry" />
        </mxCell>
        <mxCell id="5qJL8sJri6c3D2lMuEYC-19" value="" style="group" connectable="0" vertex="1" parent="5qJL8sJri6c3D2lMuEYC-18">
          <mxGeometry width="140" height="80" as="geometry" />
        </mxCell>
        <mxCell id="5qJL8sJri6c3D2lMuEYC-20" value="&lt;div&gt;&lt;br&gt;&lt;/div&gt;Термодинамика" style="rounded=0;whiteSpace=wrap;html=1;" vertex="1" parent="5qJL8sJri6c3D2lMuEYC-19">
          <mxGeometry width="140" height="80" as="geometry" />
        </mxCell>
        <mxCell id="5qJL8sJri6c3D2lMuEYC-21" value="&lt;font style=&quot;font-size: 18px;&quot;&gt;9&lt;/font&gt;" style="rounded=0;whiteSpace=wrap;html=1;" vertex="1" parent="5qJL8sJri6c3D2lMuEYC-19">
          <mxGeometry x="35" width="70" height="30" as="geometry" />
        </mxCell>
        <mxCell id="5qJL8sJri6c3D2lMuEYC-22" value="" style="group" connectable="0" vertex="1" parent="O7xO8HQiQ3wJAk5pu-F3-1">
          <mxGeometry x="880" y="160" width="140" height="80" as="geometry" />
        </mxCell>
        <mxCell id="5qJL8sJri6c3D2lMuEYC-23" value="" style="group" connectable="0" vertex="1" parent="5qJL8sJri6c3D2lMuEYC-22">
          <mxGeometry width="140" height="80" as="geometry" />
        </mxCell>
        <mxCell id="5qJL8sJri6c3D2lMuEYC-24" value="&lt;div&gt;&lt;br&gt;&lt;/div&gt;Ядерная физика" style="rounded=0;whiteSpace=wrap;html=1;" vertex="1" parent="5qJL8sJri6c3D2lMuEYC-23">
          <mxGeometry width="140" height="80" as="geometry" />
        </mxCell>
        <mxCell id="5qJL8sJri6c3D2lMuEYC-25" value="&lt;font style=&quot;font-size: 18px;&quot;&gt;10&lt;/font&gt;" style="rounded=0;whiteSpace=wrap;html=1;" vertex="1" parent="5qJL8sJri6c3D2lMuEYC-23">
          <mxGeometry x="35" width="70" height="30" as="geometry" />
        </mxCell>
      </root>
    </mxGraphModel>
  </diagram>
  <diagram id="rEmLvxYKOq363G_DSeyH" name="Ученый - Открытие">
    <mxGraphModel grid="1" page="1" gridSize="10" guides="1" tooltips="1" connect="1" arrows="1" fold="1" pageScale="1" pageWidth="1169" pageHeight="1654" math="0" shadow="0">
      <root>
        <mxCell id="0" />
        <mxCell id="1" parent="0" />
        <mxCell id="pYKbQhfk9pX9I606Agzi-2" value="" style="group" connectable="0" vertex="1" parent="1">
          <mxGeometry x="910" y="280" width="110" height="110" as="geometry" />
        </mxCell>
        <mxCell id="pYKbQhfk9pX9I606Agzi-3" value="&lt;font style=&quot;font-size: 14px;&quot;&gt;Чарльз Дарвин&lt;/font&gt;" style="ellipse;whiteSpace=wrap;html=1;aspect=fixed;" vertex="1" parent="pYKbQhfk9pX9I606Agzi-2">
          <mxGeometry width="110" height="110" as="geometry" />
        </mxCell>
        <mxCell id="pYKbQhfk9pX9I606Agzi-4" value="&lt;font style=&quot;font-size: 18px;&quot;&gt;5&lt;/font&gt;" style="ellipse;whiteSpace=wrap;html=1;aspect=fixed;" vertex="1" parent="pYKbQhfk9pX9I606Agzi-2">
          <mxGeometry x="35" width="40" height="40" as="geometry" />
        </mxCell>
        <mxCell id="pYKbQhfk9pX9I606Agzi-5" value="" style="group" connectable="0" vertex="1" parent="1">
          <mxGeometry x="150" y="640" width="110" height="110" as="geometry" />
        </mxCell>
        <mxCell id="pYKbQhfk9pX9I606Agzi-6" value="&lt;font style=&quot;font-size: 14px;&quot;&gt;Дмитрий Менделеев&lt;/font&gt;" style="ellipse;whiteSpace=wrap;html=1;aspect=fixed;" vertex="1" parent="pYKbQhfk9pX9I606Agzi-5">
          <mxGeometry width="110" height="110" as="geometry" />
        </mxCell>
        <mxCell id="pYKbQhfk9pX9I606Agzi-7" value="&lt;font style=&quot;font-size: 18px;&quot;&gt;6&lt;/font&gt;" style="ellipse;whiteSpace=wrap;html=1;aspect=fixed;" vertex="1" parent="pYKbQhfk9pX9I606Agzi-5">
          <mxGeometry x="35" width="40" height="40" as="geometry" />
        </mxCell>
        <mxCell id="pYKbQhfk9pX9I606Agzi-8" value="" style="group" connectable="0" vertex="1" parent="1">
          <mxGeometry x="340" y="640" width="110" height="110" as="geometry" />
        </mxCell>
        <mxCell id="pYKbQhfk9pX9I606Agzi-9" value="&lt;font style=&quot;font-size: 14px;&quot;&gt;Галилео Галилей&lt;/font&gt;" style="ellipse;whiteSpace=wrap;html=1;aspect=fixed;" vertex="1" parent="pYKbQhfk9pX9I606Agzi-8">
          <mxGeometry width="110" height="110" as="geometry" />
        </mxCell>
        <mxCell id="pYKbQhfk9pX9I606Agzi-10" value="&lt;font style=&quot;font-size: 18px;&quot;&gt;7&lt;/font&gt;" style="ellipse;whiteSpace=wrap;html=1;aspect=fixed;" vertex="1" parent="pYKbQhfk9pX9I606Agzi-8">
          <mxGeometry x="35" width="40" height="40" as="geometry" />
        </mxCell>
        <mxCell id="pYKbQhfk9pX9I606Agzi-11" value="" style="group" connectable="0" vertex="1" parent="1">
          <mxGeometry x="530" y="640" width="110" height="110" as="geometry" />
        </mxCell>
        <mxCell id="pYKbQhfk9pX9I606Agzi-12" value="&lt;font style=&quot;font-size: 14px;&quot;&gt;Стивен Хокинг&lt;/font&gt;" style="ellipse;whiteSpace=wrap;html=1;aspect=fixed;" vertex="1" parent="pYKbQhfk9pX9I606Agzi-11">
          <mxGeometry width="110" height="110" as="geometry" />
        </mxCell>
        <mxCell id="pYKbQhfk9pX9I606Agzi-13" value="&lt;font style=&quot;font-size: 18px;&quot;&gt;8&lt;/font&gt;" style="ellipse;whiteSpace=wrap;html=1;aspect=fixed;" vertex="1" parent="pYKbQhfk9pX9I606Agzi-11">
          <mxGeometry x="35" width="40" height="40" as="geometry" />
        </mxCell>
        <mxCell id="pYKbQhfk9pX9I606Agzi-14" value="" style="group" connectable="0" vertex="1" parent="1">
          <mxGeometry x="720" y="640" width="110" height="110" as="geometry" />
        </mxCell>
        <mxCell id="pYKbQhfk9pX9I606Agzi-15" value="&lt;font style=&quot;font-size: 14px;&quot;&gt;Розалинд Франклин&lt;/font&gt;" style="ellipse;whiteSpace=wrap;html=1;aspect=fixed;" vertex="1" parent="pYKbQhfk9pX9I606Agzi-14">
          <mxGeometry width="110" height="110" as="geometry" />
        </mxCell>
        <mxCell id="pYKbQhfk9pX9I606Agzi-16" value="&lt;font style=&quot;font-size: 18px;&quot;&gt;9&lt;/font&gt;" style="ellipse;whiteSpace=wrap;html=1;aspect=fixed;" vertex="1" parent="pYKbQhfk9pX9I606Agzi-14">
          <mxGeometry x="35" width="40" height="40" as="geometry" />
        </mxCell>
        <mxCell id="pYKbQhfk9pX9I606Agzi-17" value="" style="group" connectable="0" vertex="1" parent="1">
          <mxGeometry x="910" y="640" width="110" height="110" as="geometry" />
        </mxCell>
        <mxCell id="pYKbQhfk9pX9I606Agzi-18" value="&lt;font style=&quot;font-size: 14px;&quot;&gt;Нильс Бор&lt;/font&gt;" style="ellipse;whiteSpace=wrap;html=1;aspect=fixed;" vertex="1" parent="pYKbQhfk9pX9I606Agzi-17">
          <mxGeometry width="110" height="110" as="geometry" />
        </mxCell>
        <mxCell id="pYKbQhfk9pX9I606Agzi-19" value="&lt;font style=&quot;font-size: 18px;&quot;&gt;10&lt;/font&gt;" style="ellipse;whiteSpace=wrap;html=1;aspect=fixed;" vertex="1" parent="pYKbQhfk9pX9I606Agzi-17">
          <mxGeometry x="35" width="40" height="40" as="geometry" />
        </mxCell>
        <mxCell id="pYKbQhfk9pX9I606Agzi-20" value="" style="group" connectable="0" vertex="1" parent="1">
          <mxGeometry x="530" y="827" width="110" height="110" as="geometry" />
        </mxCell>
        <mxCell id="pYKbQhfk9pX9I606Agzi-21" value="&lt;font style=&quot;font-size: 14px;&quot;&gt;Рихард Фейнман&lt;/font&gt;" style="ellipse;whiteSpace=wrap;html=1;aspect=fixed;" vertex="1" parent="pYKbQhfk9pX9I606Agzi-20">
          <mxGeometry width="110" height="110" as="geometry" />
        </mxCell>
        <mxCell id="pYKbQhfk9pX9I606Agzi-22" value="&lt;font style=&quot;font-size: 18px;&quot;&gt;11&lt;/font&gt;" style="ellipse;whiteSpace=wrap;html=1;aspect=fixed;" vertex="1" parent="pYKbQhfk9pX9I606Agzi-20">
          <mxGeometry x="35" width="40" height="40" as="geometry" />
        </mxCell>
        <mxCell id="pYKbQhfk9pX9I606Agzi-26" value="" style="group" connectable="0" vertex="1" parent="1">
          <mxGeometry x="340" y="280" width="110" height="110" as="geometry" />
        </mxCell>
        <mxCell id="pYKbQhfk9pX9I606Agzi-27" value="&lt;font style=&quot;font-size: 14px;&quot;&gt;Мария Кюри&lt;/font&gt;" style="ellipse;whiteSpace=wrap;html=1;aspect=fixed;" vertex="1" parent="pYKbQhfk9pX9I606Agzi-26">
          <mxGeometry width="110" height="110" as="geometry" />
        </mxCell>
        <mxCell id="pYKbQhfk9pX9I606Agzi-28" value="&lt;font style=&quot;font-size: 18px;&quot;&gt;2&lt;/font&gt;" style="ellipse;whiteSpace=wrap;html=1;aspect=fixed;" vertex="1" parent="pYKbQhfk9pX9I606Agzi-26">
          <mxGeometry x="35" width="40" height="40" as="geometry" />
        </mxCell>
        <mxCell id="pYKbQhfk9pX9I606Agzi-29" value="" style="group" connectable="0" vertex="1" parent="1">
          <mxGeometry x="530" y="280" width="110" height="110" as="geometry" />
        </mxCell>
        <mxCell id="pYKbQhfk9pX9I606Agzi-30" value="&lt;span style=&quot;font-size: 14px;&quot;&gt;Никола Тесла&lt;/span&gt;" style="ellipse;whiteSpace=wrap;html=1;aspect=fixed;" vertex="1" parent="pYKbQhfk9pX9I606Agzi-29">
          <mxGeometry width="110" height="110" as="geometry" />
        </mxCell>
        <mxCell id="pYKbQhfk9pX9I606Agzi-31" value="&lt;font style=&quot;font-size: 18px;&quot;&gt;3&lt;/font&gt;" style="ellipse;whiteSpace=wrap;html=1;aspect=fixed;" vertex="1" parent="pYKbQhfk9pX9I606Agzi-29">
          <mxGeometry x="35" width="40" height="40" as="geometry" />
        </mxCell>
        <mxCell id="pYKbQhfk9pX9I606Agzi-32" value="" style="group" connectable="0" vertex="1" parent="1">
          <mxGeometry x="720" y="280" width="110" height="110" as="geometry" />
        </mxCell>
        <mxCell id="pYKbQhfk9pX9I606Agzi-33" value="&lt;font style=&quot;font-size: 14px;&quot;&gt;Исаак Ньютон&lt;/font&gt;" style="ellipse;whiteSpace=wrap;html=1;aspect=fixed;" vertex="1" parent="pYKbQhfk9pX9I606Agzi-32">
          <mxGeometry width="110" height="110" as="geometry" />
        </mxCell>
        <mxCell id="pYKbQhfk9pX9I606Agzi-34" value="&lt;font style=&quot;font-size: 18px;&quot;&gt;4&lt;/font&gt;" style="ellipse;whiteSpace=wrap;html=1;aspect=fixed;" vertex="1" parent="pYKbQhfk9pX9I606Agzi-32">
          <mxGeometry x="35" width="40" height="40" as="geometry" />
        </mxCell>
        <mxCell id="8ujd95WvY_C0M6kivAFt-2" value="" style="group" connectable="0" vertex="1" parent="1">
          <mxGeometry x="110" y="80" width="220" height="150" as="geometry" />
        </mxCell>
        <mxCell id="8ujd95WvY_C0M6kivAFt-3" value="&lt;font style=&quot;font-size: 18px;&quot;&gt;Теория&amp;nbsp;&lt;/font&gt;&lt;div&gt;&lt;font style=&quot;font-size: 18px;&quot;&gt;относительности&lt;/font&gt;&lt;/div&gt;" style="ellipse;shape=cloud;whiteSpace=wrap;html=1;" vertex="1" parent="8ujd95WvY_C0M6kivAFt-2">
          <mxGeometry width="220" height="150" as="geometry" />
        </mxCell>
        <mxCell id="8ujd95WvY_C0M6kivAFt-4" value="&lt;font style=&quot;font-size: 18px;&quot;&gt;1&lt;/font&gt;" style="ellipse;shape=cloud;whiteSpace=wrap;html=1;" vertex="1" parent="8ujd95WvY_C0M6kivAFt-2">
          <mxGeometry x="50" width="85" height="60" as="geometry" />
        </mxCell>
        <mxCell id="pYKbQhfk9pX9I606Agzi-24" value="&lt;font style=&quot;font-size: 14px;&quot;&gt;Альберт Эйнштейн&lt;/font&gt;" style="ellipse;whiteSpace=wrap;html=1;aspect=fixed;" vertex="1" parent="1">
          <mxGeometry x="150" y="280" width="110" height="110" as="geometry" />
        </mxCell>
        <mxCell id="pYKbQhfk9pX9I606Agzi-25" value="&lt;font style=&quot;font-size: 18px;&quot;&gt;1&lt;/font&gt;" style="ellipse;whiteSpace=wrap;html=1;aspect=fixed;" vertex="1" parent="1">
          <mxGeometry x="185" y="280" width="40" height="40" as="geometry" />
        </mxCell>
        <mxCell id="8ujd95WvY_C0M6kivAFt-5" value="" style="group" connectable="0" vertex="1" parent="1">
          <mxGeometry x="360" y="80" width="220" height="150" as="geometry" />
        </mxCell>
        <mxCell id="8ujd95WvY_C0M6kivAFt-6" value="&lt;font style=&quot;font-size: 18px;&quot;&gt;Радиоактивность&lt;/font&gt;" style="ellipse;shape=cloud;whiteSpace=wrap;html=1;" vertex="1" parent="8ujd95WvY_C0M6kivAFt-5">
          <mxGeometry width="220" height="150" as="geometry" />
        </mxCell>
        <mxCell id="8ujd95WvY_C0M6kivAFt-7" value="&lt;font style=&quot;font-size: 18px;&quot;&gt;2&lt;/font&gt;" style="ellipse;shape=cloud;whiteSpace=wrap;html=1;" vertex="1" parent="8ujd95WvY_C0M6kivAFt-5">
          <mxGeometry x="50" width="85" height="60" as="geometry" />
        </mxCell>
        <mxCell id="8ujd95WvY_C0M6kivAFt-8" value="" style="group" connectable="0" vertex="1" parent="1">
          <mxGeometry x="600" y="80" width="220" height="150" as="geometry" />
        </mxCell>
        <mxCell id="8ujd95WvY_C0M6kivAFt-9" value="&lt;font style=&quot;font-size: 18px;&quot;&gt;Переменный ток&lt;/font&gt;" style="ellipse;shape=cloud;whiteSpace=wrap;html=1;" vertex="1" parent="8ujd95WvY_C0M6kivAFt-8">
          <mxGeometry width="220" height="150" as="geometry" />
        </mxCell>
        <mxCell id="8ujd95WvY_C0M6kivAFt-10" value="&lt;font style=&quot;font-size: 18px;&quot;&gt;3&lt;/font&gt;" style="ellipse;shape=cloud;whiteSpace=wrap;html=1;" vertex="1" parent="8ujd95WvY_C0M6kivAFt-8">
          <mxGeometry x="50" width="85" height="60" as="geometry" />
        </mxCell>
        <mxCell id="8ujd95WvY_C0M6kivAFt-11" value="" style="group" connectable="0" vertex="1" parent="1">
          <mxGeometry x="840" y="80" width="220" height="150" as="geometry" />
        </mxCell>
        <mxCell id="8ujd95WvY_C0M6kivAFt-12" value="&lt;font style=&quot;font-size: 18px;&quot;&gt;Закон всемирного тяготения&lt;/font&gt;" style="ellipse;shape=cloud;whiteSpace=wrap;html=1;" vertex="1" parent="8ujd95WvY_C0M6kivAFt-11">
          <mxGeometry width="220" height="150" as="geometry" />
        </mxCell>
        <mxCell id="8ujd95WvY_C0M6kivAFt-13" value="&lt;font style=&quot;font-size: 18px;&quot;&gt;4&lt;/font&gt;" style="ellipse;shape=cloud;whiteSpace=wrap;html=1;" vertex="1" parent="8ujd95WvY_C0M6kivAFt-11">
          <mxGeometry x="50" width="85" height="60" as="geometry" />
        </mxCell>
        <mxCell id="8ujd95WvY_C0M6kivAFt-14" value="" style="group" connectable="0" vertex="1" parent="1">
          <mxGeometry x="1100" y="170" width="220" height="150" as="geometry" />
        </mxCell>
        <mxCell id="8ujd95WvY_C0M6kivAFt-15" value="&lt;font style=&quot;font-size: 18px;&quot;&gt;Теория эволюции&lt;/font&gt;" style="ellipse;shape=cloud;whiteSpace=wrap;html=1;" vertex="1" parent="8ujd95WvY_C0M6kivAFt-14">
          <mxGeometry width="220" height="150" as="geometry" />
        </mxCell>
        <mxCell id="8ujd95WvY_C0M6kivAFt-16" value="&lt;font style=&quot;font-size: 18px;&quot;&gt;5&lt;/font&gt;" style="ellipse;shape=cloud;whiteSpace=wrap;html=1;" vertex="1" parent="8ujd95WvY_C0M6kivAFt-14">
          <mxGeometry x="50" width="85" height="60" as="geometry" />
        </mxCell>
        <mxCell id="8ujd95WvY_C0M6kivAFt-17" value="" style="group" connectable="0" vertex="1" parent="1">
          <mxGeometry x="5" y="440" width="220" height="150" as="geometry" />
        </mxCell>
        <mxCell id="8ujd95WvY_C0M6kivAFt-18" value="&lt;font style=&quot;font-size: 18px;&quot;&gt;Периодическая&amp;nbsp;&lt;/font&gt;&lt;div&gt;&lt;font style=&quot;font-size: 18px;&quot;&gt;таблица&lt;/font&gt;&lt;/div&gt;" style="ellipse;shape=cloud;whiteSpace=wrap;html=1;" vertex="1" parent="8ujd95WvY_C0M6kivAFt-17">
          <mxGeometry width="220" height="150" as="geometry" />
        </mxCell>
        <mxCell id="8ujd95WvY_C0M6kivAFt-19" value="&lt;font style=&quot;font-size: 18px;&quot;&gt;6&lt;/font&gt;" style="ellipse;shape=cloud;whiteSpace=wrap;html=1;" vertex="1" parent="8ujd95WvY_C0M6kivAFt-17">
          <mxGeometry x="50" width="85" height="60" as="geometry" />
        </mxCell>
        <mxCell id="8ujd95WvY_C0M6kivAFt-20" value="" style="group" connectable="0" vertex="1" parent="1">
          <mxGeometry x="290" y="430" width="220" height="150" as="geometry" />
        </mxCell>
        <mxCell id="8ujd95WvY_C0M6kivAFt-21" value="&lt;font style=&quot;font-size: 18px;&quot;&gt;Гелиоцентризм&lt;/font&gt;" style="ellipse;shape=cloud;whiteSpace=wrap;html=1;" vertex="1" parent="8ujd95WvY_C0M6kivAFt-20">
          <mxGeometry width="220" height="150" as="geometry" />
        </mxCell>
        <mxCell id="8ujd95WvY_C0M6kivAFt-22" value="&lt;font style=&quot;font-size: 18px;&quot;&gt;7&lt;/font&gt;" style="ellipse;shape=cloud;whiteSpace=wrap;html=1;" vertex="1" parent="8ujd95WvY_C0M6kivAFt-20">
          <mxGeometry x="50" width="85" height="60" as="geometry" />
        </mxCell>
        <mxCell id="8ujd95WvY_C0M6kivAFt-23" value="" style="group" connectable="0" vertex="1" parent="1">
          <mxGeometry x="565" y="430" width="220" height="150" as="geometry" />
        </mxCell>
        <mxCell id="8ujd95WvY_C0M6kivAFt-24" value="&lt;font style=&quot;font-size: 18px;&quot;&gt;Излучение Хокинга&lt;/font&gt;" style="ellipse;shape=cloud;whiteSpace=wrap;html=1;" vertex="1" parent="8ujd95WvY_C0M6kivAFt-23">
          <mxGeometry width="220" height="150" as="geometry" />
        </mxCell>
        <mxCell id="8ujd95WvY_C0M6kivAFt-25" value="&lt;font style=&quot;font-size: 18px;&quot;&gt;8&lt;/font&gt;" style="ellipse;shape=cloud;whiteSpace=wrap;html=1;" vertex="1" parent="8ujd95WvY_C0M6kivAFt-23">
          <mxGeometry x="50" width="85" height="60" as="geometry" />
        </mxCell>
        <mxCell id="8ujd95WvY_C0M6kivAFt-26" value="" style="group" connectable="0" vertex="1" parent="1">
          <mxGeometry x="870" y="440" width="220" height="150" as="geometry" />
        </mxCell>
        <mxCell id="8ujd95WvY_C0M6kivAFt-27" value="&lt;font style=&quot;font-size: 18px;&quot;&gt;Структура ДНК&lt;/font&gt;" style="ellipse;shape=cloud;whiteSpace=wrap;html=1;" vertex="1" parent="8ujd95WvY_C0M6kivAFt-26">
          <mxGeometry width="220" height="150" as="geometry" />
        </mxCell>
        <mxCell id="8ujd95WvY_C0M6kivAFt-28" value="&lt;font style=&quot;font-size: 18px;&quot;&gt;9&lt;/font&gt;" style="ellipse;shape=cloud;whiteSpace=wrap;html=1;" vertex="1" parent="8ujd95WvY_C0M6kivAFt-26">
          <mxGeometry x="50" width="85" height="60" as="geometry" />
        </mxCell>
        <mxCell id="8ujd95WvY_C0M6kivAFt-29" value="" style="group" connectable="0" vertex="1" parent="1">
          <mxGeometry x="810" y="827" width="220" height="150" as="geometry" />
        </mxCell>
        <mxCell id="8ujd95WvY_C0M6kivAFt-30" value="&lt;font style=&quot;font-size: 18px;&quot;&gt;Модель атома&lt;/font&gt;" style="ellipse;shape=cloud;whiteSpace=wrap;html=1;" vertex="1" parent="8ujd95WvY_C0M6kivAFt-29">
          <mxGeometry width="220" height="150" as="geometry" />
        </mxCell>
        <mxCell id="8ujd95WvY_C0M6kivAFt-31" value="&lt;font style=&quot;font-size: 18px;&quot;&gt;10&lt;/font&gt;" style="ellipse;shape=cloud;whiteSpace=wrap;html=1;" vertex="1" parent="8ujd95WvY_C0M6kivAFt-29">
          <mxGeometry x="50" width="85" height="60" as="geometry" />
        </mxCell>
        <mxCell id="8ujd95WvY_C0M6kivAFt-32" value="" style="group" connectable="0" vertex="1" parent="1">
          <mxGeometry x="170" y="827" width="220" height="150" as="geometry" />
        </mxCell>
        <mxCell id="8ujd95WvY_C0M6kivAFt-33" value="&lt;font style=&quot;font-size: 18px;&quot;&gt;Квантовая электродинамика&lt;/font&gt;" style="ellipse;shape=cloud;whiteSpace=wrap;html=1;" vertex="1" parent="8ujd95WvY_C0M6kivAFt-32">
          <mxGeometry width="220" height="150" as="geometry" />
        </mxCell>
        <mxCell id="8ujd95WvY_C0M6kivAFt-34" value="&lt;font style=&quot;font-size: 18px;&quot;&gt;11&lt;/font&gt;" style="ellipse;shape=cloud;whiteSpace=wrap;html=1;" vertex="1" parent="8ujd95WvY_C0M6kivAFt-32">
          <mxGeometry x="50" width="85" height="60" as="geometry" />
        </mxCell>
        <mxCell id="8ujd95WvY_C0M6kivAFt-35" style="edgeStyle=orthogonalEdgeStyle;rounded=0;orthogonalLoop=1;jettySize=auto;html=1;exitX=0.5;exitY=0;exitDx=0;exitDy=0;entryX=0.55;entryY=0.95;entryDx=0;entryDy=0;entryPerimeter=0;" edge="1" parent="1" source="pYKbQhfk9pX9I606Agzi-25" target="8ujd95WvY_C0M6kivAFt-3">
          <mxGeometry relative="1" as="geometry" />
        </mxCell>
        <mxCell id="8ujd95WvY_C0M6kivAFt-36" style="edgeStyle=orthogonalEdgeStyle;rounded=0;orthogonalLoop=1;jettySize=auto;html=1;exitX=0.5;exitY=0;exitDx=0;exitDy=0;entryX=0.55;entryY=0.95;entryDx=0;entryDy=0;entryPerimeter=0;" edge="1" parent="1" source="pYKbQhfk9pX9I606Agzi-28" target="8ujd95WvY_C0M6kivAFt-6">
          <mxGeometry relative="1" as="geometry" />
        </mxCell>
        <mxCell id="8ujd95WvY_C0M6kivAFt-37" style="edgeStyle=orthogonalEdgeStyle;rounded=0;orthogonalLoop=1;jettySize=auto;html=1;exitX=0.5;exitY=0;exitDx=0;exitDy=0;entryX=0.55;entryY=0.95;entryDx=0;entryDy=0;entryPerimeter=0;" edge="1" parent="1" source="pYKbQhfk9pX9I606Agzi-31" target="8ujd95WvY_C0M6kivAFt-9">
          <mxGeometry relative="1" as="geometry" />
        </mxCell>
        <mxCell id="8ujd95WvY_C0M6kivAFt-39" style="edgeStyle=orthogonalEdgeStyle;rounded=0;orthogonalLoop=1;jettySize=auto;html=1;exitX=0.5;exitY=0;exitDx=0;exitDy=0;entryX=0.55;entryY=0.95;entryDx=0;entryDy=0;entryPerimeter=0;" edge="1" parent="1" source="pYKbQhfk9pX9I606Agzi-34" target="8ujd95WvY_C0M6kivAFt-12">
          <mxGeometry relative="1" as="geometry" />
        </mxCell>
        <mxCell id="8ujd95WvY_C0M6kivAFt-41" style="edgeStyle=orthogonalEdgeStyle;rounded=0;orthogonalLoop=1;jettySize=auto;html=1;exitX=1;exitY=0.5;exitDx=0;exitDy=0;entryX=0.55;entryY=0.95;entryDx=0;entryDy=0;entryPerimeter=0;" edge="1" parent="1" source="pYKbQhfk9pX9I606Agzi-3" target="8ujd95WvY_C0M6kivAFt-15">
          <mxGeometry relative="1" as="geometry">
            <Array as="points">
              <mxPoint x="1221" y="335" />
            </Array>
          </mxGeometry>
        </mxCell>
        <mxCell id="8ujd95WvY_C0M6kivAFt-42" style="edgeStyle=orthogonalEdgeStyle;rounded=0;orthogonalLoop=1;jettySize=auto;html=1;exitX=0.5;exitY=0;exitDx=0;exitDy=0;entryX=0.55;entryY=0.95;entryDx=0;entryDy=0;entryPerimeter=0;" edge="1" parent="1" source="pYKbQhfk9pX9I606Agzi-7" target="8ujd95WvY_C0M6kivAFt-18">
          <mxGeometry relative="1" as="geometry" />
        </mxCell>
        <mxCell id="8ujd95WvY_C0M6kivAFt-44" style="edgeStyle=orthogonalEdgeStyle;rounded=0;orthogonalLoop=1;jettySize=auto;html=1;exitX=0.5;exitY=0;exitDx=0;exitDy=0;entryX=0.55;entryY=0.95;entryDx=0;entryDy=0;entryPerimeter=0;" edge="1" parent="1" source="pYKbQhfk9pX9I606Agzi-10" target="8ujd95WvY_C0M6kivAFt-21">
          <mxGeometry relative="1" as="geometry" />
        </mxCell>
        <mxCell id="8ujd95WvY_C0M6kivAFt-45" style="edgeStyle=orthogonalEdgeStyle;rounded=0;orthogonalLoop=1;jettySize=auto;html=1;exitX=0.5;exitY=0;exitDx=0;exitDy=0;entryX=0.55;entryY=0.95;entryDx=0;entryDy=0;entryPerimeter=0;" edge="1" parent="1" source="pYKbQhfk9pX9I606Agzi-13" target="8ujd95WvY_C0M6kivAFt-24">
          <mxGeometry relative="1" as="geometry" />
        </mxCell>
        <mxCell id="8ujd95WvY_C0M6kivAFt-47" style="edgeStyle=orthogonalEdgeStyle;rounded=0;orthogonalLoop=1;jettySize=auto;html=1;exitX=0.5;exitY=0;exitDx=0;exitDy=0;entryX=0.55;entryY=0.95;entryDx=0;entryDy=0;entryPerimeter=0;" edge="1" parent="1" source="pYKbQhfk9pX9I606Agzi-16" target="8ujd95WvY_C0M6kivAFt-27">
          <mxGeometry relative="1" as="geometry" />
        </mxCell>
        <mxCell id="8ujd95WvY_C0M6kivAFt-49" style="edgeStyle=orthogonalEdgeStyle;rounded=0;orthogonalLoop=1;jettySize=auto;html=1;exitX=0.5;exitY=1;exitDx=0;exitDy=0;entryX=0.625;entryY=0.2;entryDx=0;entryDy=0;entryPerimeter=0;" edge="1" parent="1" source="pYKbQhfk9pX9I606Agzi-18" target="8ujd95WvY_C0M6kivAFt-30">
          <mxGeometry relative="1" as="geometry" />
        </mxCell>
        <mxCell id="8ujd95WvY_C0M6kivAFt-52" style="edgeStyle=orthogonalEdgeStyle;rounded=0;orthogonalLoop=1;jettySize=auto;html=1;exitX=0;exitY=0.5;exitDx=0;exitDy=0;entryX=0.875;entryY=0.5;entryDx=0;entryDy=0;entryPerimeter=0;" edge="1" parent="1" source="pYKbQhfk9pX9I606Agzi-21" target="8ujd95WvY_C0M6kivAFt-33">
          <mxGeometry relative="1" as="geometry" />
        </mxCell>
      </root>
    </mxGraphModel>
  </diagram>
  <diagram id="_1ClNcm72NVcw8nQ11jd" name="Открытие - Область">
    <mxGraphModel grid="1" page="1" gridSize="10" guides="1" tooltips="1" connect="1" arrows="1" fold="1" pageScale="1" pageWidth="1169" pageHeight="1654" math="0" shadow="0">
      <root>
        <mxCell id="0" />
        <mxCell id="1" parent="0" />
        <mxCell id="SVH1MbIcFj_nPOZJMPV3-2" value="" style="group" connectable="0" vertex="1" parent="1">
          <mxGeometry x="40" y="260" width="220" height="150" as="geometry" />
        </mxCell>
        <mxCell id="SVH1MbIcFj_nPOZJMPV3-3" value="&lt;font style=&quot;font-size: 18px;&quot;&gt;Теория&amp;nbsp;&lt;/font&gt;&lt;div&gt;&lt;font style=&quot;font-size: 18px;&quot;&gt;относительности&lt;/font&gt;&lt;/div&gt;" style="ellipse;shape=cloud;whiteSpace=wrap;html=1;" vertex="1" parent="SVH1MbIcFj_nPOZJMPV3-2">
          <mxGeometry width="220" height="150" as="geometry" />
        </mxCell>
        <mxCell id="SVH1MbIcFj_nPOZJMPV3-4" value="&lt;font style=&quot;font-size: 18px;&quot;&gt;1&lt;/font&gt;" style="ellipse;shape=cloud;whiteSpace=wrap;html=1;" vertex="1" parent="SVH1MbIcFj_nPOZJMPV3-2">
          <mxGeometry x="50" width="85" height="60" as="geometry" />
        </mxCell>
        <mxCell id="SVH1MbIcFj_nPOZJMPV3-5" value="" style="group" connectable="0" vertex="1" parent="1">
          <mxGeometry x="280" y="260" width="220" height="150" as="geometry" />
        </mxCell>
        <mxCell id="SVH1MbIcFj_nPOZJMPV3-6" value="&lt;font style=&quot;font-size: 18px;&quot;&gt;Радиоактивность&lt;/font&gt;" style="ellipse;shape=cloud;whiteSpace=wrap;html=1;" vertex="1" parent="SVH1MbIcFj_nPOZJMPV3-5">
          <mxGeometry width="220" height="150" as="geometry" />
        </mxCell>
        <mxCell id="SVH1MbIcFj_nPOZJMPV3-7" value="&lt;font style=&quot;font-size: 18px;&quot;&gt;2&lt;/font&gt;" style="ellipse;shape=cloud;whiteSpace=wrap;html=1;" vertex="1" parent="SVH1MbIcFj_nPOZJMPV3-5">
          <mxGeometry x="50" width="85" height="60" as="geometry" />
        </mxCell>
        <mxCell id="SVH1MbIcFj_nPOZJMPV3-8" value="" style="group" connectable="0" vertex="1" parent="1">
          <mxGeometry x="620" y="980" width="220" height="150" as="geometry" />
        </mxCell>
        <mxCell id="SVH1MbIcFj_nPOZJMPV3-9" value="&lt;font style=&quot;font-size: 18px;&quot;&gt;Переменный ток&lt;/font&gt;" style="ellipse;shape=cloud;whiteSpace=wrap;html=1;" vertex="1" parent="SVH1MbIcFj_nPOZJMPV3-8">
          <mxGeometry width="220" height="150" as="geometry" />
        </mxCell>
        <mxCell id="SVH1MbIcFj_nPOZJMPV3-10" value="&lt;font style=&quot;font-size: 18px;&quot;&gt;3&lt;/font&gt;" style="ellipse;shape=cloud;whiteSpace=wrap;html=1;" vertex="1" parent="SVH1MbIcFj_nPOZJMPV3-8">
          <mxGeometry x="50" width="85" height="60" as="geometry" />
        </mxCell>
        <mxCell id="SVH1MbIcFj_nPOZJMPV3-11" value="" style="group" connectable="0" vertex="1" parent="1">
          <mxGeometry x="35" y="600" width="220" height="150" as="geometry" />
        </mxCell>
        <mxCell id="SVH1MbIcFj_nPOZJMPV3-12" value="&lt;font style=&quot;font-size: 18px;&quot;&gt;Закон всемирного тяготения&lt;/font&gt;" style="ellipse;shape=cloud;whiteSpace=wrap;html=1;" vertex="1" parent="SVH1MbIcFj_nPOZJMPV3-11">
          <mxGeometry width="220" height="150" as="geometry" />
        </mxCell>
        <mxCell id="SVH1MbIcFj_nPOZJMPV3-13" value="&lt;font style=&quot;font-size: 18px;&quot;&gt;4&lt;/font&gt;" style="ellipse;shape=cloud;whiteSpace=wrap;html=1;" vertex="1" parent="SVH1MbIcFj_nPOZJMPV3-11">
          <mxGeometry x="50" width="85" height="60" as="geometry" />
        </mxCell>
        <mxCell id="SVH1MbIcFj_nPOZJMPV3-14" value="" style="group" connectable="0" vertex="1" parent="1">
          <mxGeometry x="540" y="260" width="220" height="150" as="geometry" />
        </mxCell>
        <mxCell id="SVH1MbIcFj_nPOZJMPV3-15" value="&lt;font style=&quot;font-size: 18px;&quot;&gt;Теория эволюции&lt;/font&gt;" style="ellipse;shape=cloud;whiteSpace=wrap;html=1;" vertex="1" parent="SVH1MbIcFj_nPOZJMPV3-14">
          <mxGeometry width="220" height="150" as="geometry" />
        </mxCell>
        <mxCell id="SVH1MbIcFj_nPOZJMPV3-16" value="&lt;font style=&quot;font-size: 18px;&quot;&gt;5&lt;/font&gt;" style="ellipse;shape=cloud;whiteSpace=wrap;html=1;" vertex="1" parent="SVH1MbIcFj_nPOZJMPV3-14">
          <mxGeometry x="50" width="85" height="60" as="geometry" />
        </mxCell>
        <mxCell id="SVH1MbIcFj_nPOZJMPV3-20" value="" style="group" connectable="0" vertex="1" parent="1">
          <mxGeometry x="875" y="600" width="220" height="150" as="geometry" />
        </mxCell>
        <mxCell id="SVH1MbIcFj_nPOZJMPV3-21" value="&lt;font style=&quot;font-size: 18px;&quot;&gt;Гелиоцентризм&lt;/font&gt;" style="ellipse;shape=cloud;whiteSpace=wrap;html=1;" vertex="1" parent="SVH1MbIcFj_nPOZJMPV3-20">
          <mxGeometry width="220" height="150" as="geometry" />
        </mxCell>
        <mxCell id="SVH1MbIcFj_nPOZJMPV3-22" value="&lt;font style=&quot;font-size: 18px;&quot;&gt;7&lt;/font&gt;" style="ellipse;shape=cloud;whiteSpace=wrap;html=1;" vertex="1" parent="SVH1MbIcFj_nPOZJMPV3-20">
          <mxGeometry x="50" width="85" height="60" as="geometry" />
        </mxCell>
        <mxCell id="SVH1MbIcFj_nPOZJMPV3-23" value="" style="group" connectable="0" vertex="1" parent="1">
          <mxGeometry x="330" y="980" width="220" height="150" as="geometry" />
        </mxCell>
        <mxCell id="SVH1MbIcFj_nPOZJMPV3-24" value="&lt;font style=&quot;font-size: 18px;&quot;&gt;Излучение Хокинга&lt;/font&gt;" style="ellipse;shape=cloud;whiteSpace=wrap;html=1;" vertex="1" parent="SVH1MbIcFj_nPOZJMPV3-23">
          <mxGeometry width="220" height="150" as="geometry" />
        </mxCell>
        <mxCell id="SVH1MbIcFj_nPOZJMPV3-25" value="&lt;font style=&quot;font-size: 18px;&quot;&gt;8&lt;/font&gt;" style="ellipse;shape=cloud;whiteSpace=wrap;html=1;" vertex="1" parent="SVH1MbIcFj_nPOZJMPV3-23">
          <mxGeometry x="50" width="85" height="60" as="geometry" />
        </mxCell>
        <mxCell id="SVH1MbIcFj_nPOZJMPV3-26" value="" style="group" connectable="0" vertex="1" parent="1">
          <mxGeometry x="40" y="980" width="220" height="150" as="geometry" />
        </mxCell>
        <mxCell id="SVH1MbIcFj_nPOZJMPV3-27" value="&lt;font style=&quot;font-size: 18px;&quot;&gt;Структура ДНК&lt;/font&gt;" style="ellipse;shape=cloud;whiteSpace=wrap;html=1;" vertex="1" parent="SVH1MbIcFj_nPOZJMPV3-26">
          <mxGeometry width="220" height="150" as="geometry" />
        </mxCell>
        <mxCell id="SVH1MbIcFj_nPOZJMPV3-28" value="&lt;font style=&quot;font-size: 18px;&quot;&gt;9&lt;/font&gt;" style="ellipse;shape=cloud;whiteSpace=wrap;html=1;" vertex="1" parent="SVH1MbIcFj_nPOZJMPV3-26">
          <mxGeometry x="50" width="85" height="60" as="geometry" />
        </mxCell>
        <mxCell id="SVH1MbIcFj_nPOZJMPV3-29" value="" style="group" connectable="0" vertex="1" parent="1">
          <mxGeometry x="180" y="1140" width="220" height="150" as="geometry" />
        </mxCell>
        <mxCell id="jbKAheQ_pfaYCmNnBjxm-52" style="edgeStyle=orthogonalEdgeStyle;rounded=0;orthogonalLoop=1;jettySize=auto;html=1;exitX=0.625;exitY=0.2;exitDx=0;exitDy=0;exitPerimeter=0;fontFamily=Helvetica;fontSize=12;fontColor=default;" edge="1" parent="SVH1MbIcFj_nPOZJMPV3-29" source="SVH1MbIcFj_nPOZJMPV3-30">
          <mxGeometry relative="1" as="geometry">
            <mxPoint x="137" y="-250.00000000000023" as="targetPoint" />
          </mxGeometry>
        </mxCell>
        <mxCell id="SVH1MbIcFj_nPOZJMPV3-30" value="&lt;font style=&quot;font-size: 18px;&quot;&gt;Модель атома&lt;/font&gt;" style="ellipse;shape=cloud;whiteSpace=wrap;html=1;" vertex="1" parent="SVH1MbIcFj_nPOZJMPV3-29">
          <mxGeometry width="220" height="150" as="geometry" />
        </mxCell>
        <mxCell id="SVH1MbIcFj_nPOZJMPV3-31" value="&lt;font style=&quot;font-size: 18px;&quot;&gt;10&lt;/font&gt;" style="ellipse;shape=cloud;whiteSpace=wrap;html=1;" vertex="1" parent="SVH1MbIcFj_nPOZJMPV3-29">
          <mxGeometry x="50" width="85" height="60" as="geometry" />
        </mxCell>
        <mxCell id="SVH1MbIcFj_nPOZJMPV3-32" value="" style="group" connectable="0" vertex="1" parent="1">
          <mxGeometry x="560" y="600" width="220" height="150" as="geometry" />
        </mxCell>
        <mxCell id="SVH1MbIcFj_nPOZJMPV3-33" value="&lt;font style=&quot;font-size: 18px;&quot;&gt;Квантовая электродинамика&lt;/font&gt;" style="ellipse;shape=cloud;whiteSpace=wrap;html=1;" vertex="1" parent="SVH1MbIcFj_nPOZJMPV3-32">
          <mxGeometry width="220" height="150" as="geometry" />
        </mxCell>
        <mxCell id="SVH1MbIcFj_nPOZJMPV3-34" value="&lt;font style=&quot;font-size: 18px;&quot;&gt;11&lt;/font&gt;" style="ellipse;shape=cloud;whiteSpace=wrap;html=1;" vertex="1" parent="SVH1MbIcFj_nPOZJMPV3-32">
          <mxGeometry x="50" width="85" height="60" as="geometry" />
        </mxCell>
        <mxCell id="jbKAheQ_pfaYCmNnBjxm-2" value="" style="group" connectable="0" vertex="1" parent="1">
          <mxGeometry x="75" y="480" width="140" height="80" as="geometry" />
        </mxCell>
        <mxCell id="jbKAheQ_pfaYCmNnBjxm-3" value="" style="group" connectable="0" vertex="1" parent="jbKAheQ_pfaYCmNnBjxm-2">
          <mxGeometry width="140" height="80" as="geometry" />
        </mxCell>
        <mxCell id="jbKAheQ_pfaYCmNnBjxm-4" value="&lt;div&gt;&lt;br&gt;&lt;/div&gt;Физика" style="rounded=0;whiteSpace=wrap;html=1;" vertex="1" parent="jbKAheQ_pfaYCmNnBjxm-3">
          <mxGeometry width="140" height="80" as="geometry" />
        </mxCell>
        <mxCell id="jbKAheQ_pfaYCmNnBjxm-5" value="&lt;font style=&quot;font-size: 18px;&quot;&gt;1&lt;/font&gt;" style="rounded=0;whiteSpace=wrap;html=1;" vertex="1" parent="jbKAheQ_pfaYCmNnBjxm-3">
          <mxGeometry x="35" width="70" height="30" as="geometry" />
        </mxCell>
        <mxCell id="jbKAheQ_pfaYCmNnBjxm-6" value="" style="group" connectable="0" vertex="1" parent="1">
          <mxGeometry x="295" y="480" width="140" height="80" as="geometry" />
        </mxCell>
        <mxCell id="jbKAheQ_pfaYCmNnBjxm-7" value="" style="group" connectable="0" vertex="1" parent="jbKAheQ_pfaYCmNnBjxm-6">
          <mxGeometry width="140" height="80" as="geometry" />
        </mxCell>
        <mxCell id="jbKAheQ_pfaYCmNnBjxm-8" value="&lt;div&gt;&lt;br&gt;&lt;/div&gt;Химия" style="rounded=0;whiteSpace=wrap;html=1;" vertex="1" parent="jbKAheQ_pfaYCmNnBjxm-7">
          <mxGeometry width="140" height="80" as="geometry" />
        </mxCell>
        <mxCell id="jbKAheQ_pfaYCmNnBjxm-9" value="&lt;font style=&quot;font-size: 18px;&quot;&gt;2&lt;/font&gt;" style="rounded=0;whiteSpace=wrap;html=1;" vertex="1" parent="jbKAheQ_pfaYCmNnBjxm-7">
          <mxGeometry x="35" width="70" height="30" as="geometry" />
        </mxCell>
        <mxCell id="jbKAheQ_pfaYCmNnBjxm-10" value="" style="group" connectable="0" vertex="1" parent="1">
          <mxGeometry x="515" y="480" width="140" height="80" as="geometry" />
        </mxCell>
        <mxCell id="jbKAheQ_pfaYCmNnBjxm-11" value="" style="group" connectable="0" vertex="1" parent="jbKAheQ_pfaYCmNnBjxm-10">
          <mxGeometry width="140" height="80" as="geometry" />
        </mxCell>
        <mxCell id="jbKAheQ_pfaYCmNnBjxm-12" value="&lt;div&gt;&lt;br&gt;&lt;/div&gt;Биология" style="rounded=0;whiteSpace=wrap;html=1;" vertex="1" parent="jbKAheQ_pfaYCmNnBjxm-11">
          <mxGeometry width="140" height="80" as="geometry" />
        </mxCell>
        <mxCell id="jbKAheQ_pfaYCmNnBjxm-13" value="&lt;font style=&quot;font-size: 18px;&quot;&gt;3&lt;/font&gt;" style="rounded=0;whiteSpace=wrap;html=1;" vertex="1" parent="jbKAheQ_pfaYCmNnBjxm-11">
          <mxGeometry x="35" width="70" height="30" as="geometry" />
        </mxCell>
        <mxCell id="jbKAheQ_pfaYCmNnBjxm-14" value="" style="group" connectable="0" vertex="1" parent="1">
          <mxGeometry x="735" y="480" width="140" height="80" as="geometry" />
        </mxCell>
        <mxCell id="jbKAheQ_pfaYCmNnBjxm-15" value="" style="group" connectable="0" vertex="1" parent="jbKAheQ_pfaYCmNnBjxm-14">
          <mxGeometry width="140" height="80" as="geometry" />
        </mxCell>
        <mxCell id="jbKAheQ_pfaYCmNnBjxm-16" value="&lt;div&gt;&lt;br&gt;&lt;/div&gt;Астрономия" style="rounded=0;whiteSpace=wrap;html=1;" vertex="1" parent="jbKAheQ_pfaYCmNnBjxm-15">
          <mxGeometry width="140" height="80" as="geometry" />
        </mxCell>
        <mxCell id="jbKAheQ_pfaYCmNnBjxm-17" value="&lt;font style=&quot;font-size: 18px;&quot;&gt;4&lt;/font&gt;" style="rounded=0;whiteSpace=wrap;html=1;" vertex="1" parent="jbKAheQ_pfaYCmNnBjxm-15">
          <mxGeometry x="35" width="70" height="30" as="geometry" />
        </mxCell>
        <mxCell id="jbKAheQ_pfaYCmNnBjxm-18" value="" style="group" connectable="0" vertex="1" parent="1">
          <mxGeometry x="955" y="480" width="140" height="80" as="geometry" />
        </mxCell>
        <mxCell id="jbKAheQ_pfaYCmNnBjxm-19" value="" style="group" connectable="0" vertex="1" parent="jbKAheQ_pfaYCmNnBjxm-18">
          <mxGeometry width="140" height="80" as="geometry" />
        </mxCell>
        <mxCell id="jbKAheQ_pfaYCmNnBjxm-20" value="&lt;div&gt;&lt;br&gt;&lt;/div&gt;Математика" style="rounded=0;whiteSpace=wrap;html=1;" vertex="1" parent="jbKAheQ_pfaYCmNnBjxm-19">
          <mxGeometry width="140" height="80" as="geometry" />
        </mxCell>
        <mxCell id="jbKAheQ_pfaYCmNnBjxm-21" value="&lt;font style=&quot;font-size: 18px;&quot;&gt;5&lt;/font&gt;" style="rounded=0;whiteSpace=wrap;html=1;" vertex="1" parent="jbKAheQ_pfaYCmNnBjxm-19">
          <mxGeometry x="35" width="70" height="30" as="geometry" />
        </mxCell>
        <mxCell id="jbKAheQ_pfaYCmNnBjxm-42" value="" style="group" connectable="0" vertex="1" parent="1">
          <mxGeometry x="75" y="810" width="1020" height="80" as="geometry" />
        </mxCell>
        <mxCell id="jbKAheQ_pfaYCmNnBjxm-22" value="" style="group" connectable="0" vertex="1" parent="jbKAheQ_pfaYCmNnBjxm-42">
          <mxGeometry width="140" height="80" as="geometry" />
        </mxCell>
        <mxCell id="jbKAheQ_pfaYCmNnBjxm-23" value="" style="group" connectable="0" vertex="1" parent="jbKAheQ_pfaYCmNnBjxm-22">
          <mxGeometry width="140" height="80" as="geometry" />
        </mxCell>
        <mxCell id="jbKAheQ_pfaYCmNnBjxm-24" value="&lt;div&gt;&lt;br&gt;&lt;/div&gt;Генетика" style="rounded=0;whiteSpace=wrap;html=1;" vertex="1" parent="jbKAheQ_pfaYCmNnBjxm-23">
          <mxGeometry width="140" height="80" as="geometry" />
        </mxCell>
        <mxCell id="jbKAheQ_pfaYCmNnBjxm-25" value="&lt;font style=&quot;font-size: 18px;&quot;&gt;6&lt;/font&gt;" style="rounded=0;whiteSpace=wrap;html=1;" vertex="1" parent="jbKAheQ_pfaYCmNnBjxm-23">
          <mxGeometry x="35" width="70" height="30" as="geometry" />
        </mxCell>
        <mxCell id="jbKAheQ_pfaYCmNnBjxm-26" value="" style="group" connectable="0" vertex="1" parent="jbKAheQ_pfaYCmNnBjxm-42">
          <mxGeometry x="220" width="195" height="80" as="geometry" />
        </mxCell>
        <mxCell id="jbKAheQ_pfaYCmNnBjxm-27" value="" style="group" connectable="0" vertex="1" parent="jbKAheQ_pfaYCmNnBjxm-26">
          <mxGeometry width="195" height="80" as="geometry" />
        </mxCell>
        <mxCell id="jbKAheQ_pfaYCmNnBjxm-28" value="&lt;div&gt;&lt;br&gt;&lt;/div&gt;Квантовая механика" style="rounded=0;whiteSpace=wrap;html=1;" vertex="1" parent="jbKAheQ_pfaYCmNnBjxm-27">
          <mxGeometry width="140" height="80" as="geometry" />
        </mxCell>
        <mxCell id="jbKAheQ_pfaYCmNnBjxm-29" value="&lt;font style=&quot;font-size: 18px;&quot;&gt;7&lt;/font&gt;" style="rounded=0;whiteSpace=wrap;html=1;" vertex="1" parent="jbKAheQ_pfaYCmNnBjxm-27">
          <mxGeometry x="35" width="70" height="30" as="geometry" />
        </mxCell>
        <mxCell id="SVH1MbIcFj_nPOZJMPV3-17" value="" style="group" connectable="0" vertex="1" parent="jbKAheQ_pfaYCmNnBjxm-27">
          <mxGeometry x="-25" y="-210" width="220" height="150" as="geometry" />
        </mxCell>
        <mxCell id="SVH1MbIcFj_nPOZJMPV3-18" value="&lt;font style=&quot;font-size: 18px;&quot;&gt;Периодическая&amp;nbsp;&lt;/font&gt;&lt;div&gt;&lt;font style=&quot;font-size: 18px;&quot;&gt;таблица&lt;/font&gt;&lt;/div&gt;" style="ellipse;shape=cloud;whiteSpace=wrap;html=1;" vertex="1" parent="SVH1MbIcFj_nPOZJMPV3-17">
          <mxGeometry width="220" height="150" as="geometry" />
        </mxCell>
        <mxCell id="SVH1MbIcFj_nPOZJMPV3-19" value="&lt;font style=&quot;font-size: 18px;&quot;&gt;6&lt;/font&gt;" style="ellipse;shape=cloud;whiteSpace=wrap;html=1;" vertex="1" parent="SVH1MbIcFj_nPOZJMPV3-17">
          <mxGeometry x="50" width="85" height="60" as="geometry" />
        </mxCell>
        <mxCell id="jbKAheQ_pfaYCmNnBjxm-30" value="" style="group" connectable="0" vertex="1" parent="jbKAheQ_pfaYCmNnBjxm-42">
          <mxGeometry x="441" width="140" height="80" as="geometry" />
        </mxCell>
        <mxCell id="jbKAheQ_pfaYCmNnBjxm-31" value="" style="group" connectable="0" vertex="1" parent="jbKAheQ_pfaYCmNnBjxm-30">
          <mxGeometry width="140" height="80" as="geometry" />
        </mxCell>
        <mxCell id="jbKAheQ_pfaYCmNnBjxm-32" value="&lt;div&gt;&lt;br&gt;&lt;/div&gt;Электродинамика" style="rounded=0;whiteSpace=wrap;html=1;" vertex="1" parent="jbKAheQ_pfaYCmNnBjxm-31">
          <mxGeometry width="140" height="80" as="geometry" />
        </mxCell>
        <mxCell id="jbKAheQ_pfaYCmNnBjxm-33" value="&lt;span style=&quot;font-size: 18px;&quot;&gt;8&lt;/span&gt;" style="rounded=0;whiteSpace=wrap;html=1;" vertex="1" parent="jbKAheQ_pfaYCmNnBjxm-31">
          <mxGeometry x="35" width="70" height="30" as="geometry" />
        </mxCell>
        <mxCell id="jbKAheQ_pfaYCmNnBjxm-34" value="" style="group" connectable="0" vertex="1" parent="jbKAheQ_pfaYCmNnBjxm-42">
          <mxGeometry x="660" width="140" height="80" as="geometry" />
        </mxCell>
        <mxCell id="jbKAheQ_pfaYCmNnBjxm-35" value="" style="group" connectable="0" vertex="1" parent="jbKAheQ_pfaYCmNnBjxm-34">
          <mxGeometry width="140" height="80" as="geometry" />
        </mxCell>
        <mxCell id="jbKAheQ_pfaYCmNnBjxm-36" value="&lt;div&gt;&lt;br&gt;&lt;/div&gt;Термодинамика" style="rounded=0;whiteSpace=wrap;html=1;" vertex="1" parent="jbKAheQ_pfaYCmNnBjxm-35">
          <mxGeometry width="140" height="80" as="geometry" />
        </mxCell>
        <mxCell id="jbKAheQ_pfaYCmNnBjxm-37" value="&lt;font style=&quot;font-size: 18px;&quot;&gt;9&lt;/font&gt;" style="rounded=0;whiteSpace=wrap;html=1;" vertex="1" parent="jbKAheQ_pfaYCmNnBjxm-35">
          <mxGeometry x="35" width="70" height="30" as="geometry" />
        </mxCell>
        <mxCell id="jbKAheQ_pfaYCmNnBjxm-38" value="" style="group" connectable="0" vertex="1" parent="jbKAheQ_pfaYCmNnBjxm-42">
          <mxGeometry x="880" width="140" height="80" as="geometry" />
        </mxCell>
        <mxCell id="jbKAheQ_pfaYCmNnBjxm-39" value="" style="group" connectable="0" vertex="1" parent="jbKAheQ_pfaYCmNnBjxm-38">
          <mxGeometry width="140" height="80" as="geometry" />
        </mxCell>
        <mxCell id="jbKAheQ_pfaYCmNnBjxm-40" value="&lt;div&gt;&lt;br&gt;&lt;/div&gt;Ядерная физика" style="rounded=0;whiteSpace=wrap;html=1;" vertex="1" parent="jbKAheQ_pfaYCmNnBjxm-39">
          <mxGeometry width="140" height="80" as="geometry" />
        </mxCell>
        <mxCell id="jbKAheQ_pfaYCmNnBjxm-41" value="&lt;font style=&quot;font-size: 18px;&quot;&gt;10&lt;/font&gt;" style="rounded=0;whiteSpace=wrap;html=1;" vertex="1" parent="jbKAheQ_pfaYCmNnBjxm-39">
          <mxGeometry x="35" width="70" height="30" as="geometry" />
        </mxCell>
        <mxCell id="jbKAheQ_pfaYCmNnBjxm-43" style="edgeStyle=orthogonalEdgeStyle;rounded=0;orthogonalLoop=1;jettySize=auto;html=1;exitX=0.55;exitY=0.95;exitDx=0;exitDy=0;exitPerimeter=0;entryX=0.5;entryY=0;entryDx=0;entryDy=0;fontFamily=Helvetica;fontSize=12;fontColor=default;" edge="1" parent="1" source="SVH1MbIcFj_nPOZJMPV3-3" target="jbKAheQ_pfaYCmNnBjxm-5">
          <mxGeometry relative="1" as="geometry" />
        </mxCell>
        <mxCell id="jbKAheQ_pfaYCmNnBjxm-44" style="edgeStyle=orthogonalEdgeStyle;rounded=0;orthogonalLoop=1;jettySize=auto;html=1;exitX=0.625;exitY=0.2;exitDx=0;exitDy=0;exitPerimeter=0;entryX=0.5;entryY=1;entryDx=0;entryDy=0;fontFamily=Helvetica;fontSize=12;fontColor=default;" edge="1" parent="1" source="SVH1MbIcFj_nPOZJMPV3-12" target="jbKAheQ_pfaYCmNnBjxm-4">
          <mxGeometry relative="1" as="geometry" />
        </mxCell>
        <mxCell id="jbKAheQ_pfaYCmNnBjxm-45" style="edgeStyle=orthogonalEdgeStyle;rounded=0;orthogonalLoop=1;jettySize=auto;html=1;exitX=0.625;exitY=0.2;exitDx=0;exitDy=0;exitPerimeter=0;entryX=0.5;entryY=1;entryDx=0;entryDy=0;fontFamily=Helvetica;fontSize=12;fontColor=default;" edge="1" parent="1" source="SVH1MbIcFj_nPOZJMPV3-9" target="jbKAheQ_pfaYCmNnBjxm-32">
          <mxGeometry relative="1" as="geometry" />
        </mxCell>
        <mxCell id="jbKAheQ_pfaYCmNnBjxm-46" style="edgeStyle=orthogonalEdgeStyle;rounded=0;orthogonalLoop=1;jettySize=auto;html=1;exitX=0.55;exitY=0.95;exitDx=0;exitDy=0;exitPerimeter=0;entryX=0.5;entryY=0;entryDx=0;entryDy=0;fontFamily=Helvetica;fontSize=12;fontColor=default;" edge="1" parent="1" source="SVH1MbIcFj_nPOZJMPV3-6" target="jbKAheQ_pfaYCmNnBjxm-9">
          <mxGeometry relative="1" as="geometry" />
        </mxCell>
        <mxCell id="jbKAheQ_pfaYCmNnBjxm-47" style="edgeStyle=orthogonalEdgeStyle;rounded=0;orthogonalLoop=1;jettySize=auto;html=1;exitX=0.55;exitY=0.95;exitDx=0;exitDy=0;exitPerimeter=0;fontFamily=Helvetica;fontSize=12;fontColor=default;" edge="1" parent="1" source="SVH1MbIcFj_nPOZJMPV3-15" target="jbKAheQ_pfaYCmNnBjxm-13">
          <mxGeometry relative="1" as="geometry" />
        </mxCell>
        <mxCell id="jbKAheQ_pfaYCmNnBjxm-48" style="edgeStyle=orthogonalEdgeStyle;rounded=0;orthogonalLoop=1;jettySize=auto;html=1;exitX=0.625;exitY=0.2;exitDx=0;exitDy=0;exitPerimeter=0;entryX=0.5;entryY=1;entryDx=0;entryDy=0;fontFamily=Helvetica;fontSize=12;fontColor=default;" edge="1" parent="1" source="SVH1MbIcFj_nPOZJMPV3-18" target="jbKAheQ_pfaYCmNnBjxm-8">
          <mxGeometry relative="1" as="geometry" />
        </mxCell>
        <mxCell id="jbKAheQ_pfaYCmNnBjxm-49" style="edgeStyle=orthogonalEdgeStyle;rounded=0;orthogonalLoop=1;jettySize=auto;html=1;exitX=0.625;exitY=0.2;exitDx=0;exitDy=0;exitPerimeter=0;entryX=0.5;entryY=1;entryDx=0;entryDy=0;fontFamily=Helvetica;fontSize=12;fontColor=default;" edge="1" parent="1" source="SVH1MbIcFj_nPOZJMPV3-21" target="jbKAheQ_pfaYCmNnBjxm-16">
          <mxGeometry relative="1" as="geometry" />
        </mxCell>
        <mxCell id="jbKAheQ_pfaYCmNnBjxm-50" style="edgeStyle=orthogonalEdgeStyle;rounded=0;orthogonalLoop=1;jettySize=auto;html=1;exitX=0.625;exitY=0.2;exitDx=0;exitDy=0;exitPerimeter=0;entryX=0.5;entryY=1;entryDx=0;entryDy=0;fontFamily=Helvetica;fontSize=12;fontColor=default;" edge="1" parent="1" source="SVH1MbIcFj_nPOZJMPV3-24" target="jbKAheQ_pfaYCmNnBjxm-28">
          <mxGeometry relative="1" as="geometry" />
        </mxCell>
        <mxCell id="jbKAheQ_pfaYCmNnBjxm-51" style="edgeStyle=orthogonalEdgeStyle;rounded=0;orthogonalLoop=1;jettySize=auto;html=1;exitX=0.625;exitY=0.2;exitDx=0;exitDy=0;exitPerimeter=0;fontFamily=Helvetica;fontSize=12;fontColor=default;" edge="1" parent="1" source="SVH1MbIcFj_nPOZJMPV3-27" target="jbKAheQ_pfaYCmNnBjxm-24">
          <mxGeometry relative="1" as="geometry" />
        </mxCell>
        <mxCell id="jbKAheQ_pfaYCmNnBjxm-54" style="edgeStyle=orthogonalEdgeStyle;rounded=0;orthogonalLoop=1;jettySize=auto;html=1;exitX=0.16;exitY=0.55;exitDx=0;exitDy=0;exitPerimeter=0;entryX=0.5;entryY=0;entryDx=0;entryDy=0;fontFamily=Helvetica;fontSize=12;fontColor=default;" edge="1" parent="1" source="SVH1MbIcFj_nPOZJMPV3-33" target="jbKAheQ_pfaYCmNnBjxm-28">
          <mxGeometry relative="1" as="geometry">
            <Array as="points">
              <mxPoint x="595" y="780" />
              <mxPoint x="365" y="780" />
            </Array>
          </mxGeometry>
        </mxCell>
      </root>
    </mxGraphModel>
  </diagram>
  <diagram id="3No_ZZgRjaeWQOJxRQHL" name="Ученый - Ученый ">
    <mxGraphModel grid="1" page="1" gridSize="10" guides="1" tooltips="1" connect="1" arrows="1" fold="1" pageScale="1" pageWidth="1169" pageHeight="1654" math="0" shadow="0">
      <root>
        <mxCell id="0" />
        <mxCell id="1" parent="0" />
        <mxCell id="HmDTK8kvEWGDyNGJV9-K-1" value="" style="group" connectable="0" vertex="1" parent="1">
          <mxGeometry x="80" y="110" width="1010" height="680" as="geometry" />
        </mxCell>
        <mxCell id="HmDTK8kvEWGDyNGJV9-K-2" value="" style="group" connectable="0" vertex="1" parent="HmDTK8kvEWGDyNGJV9-K-1">
          <mxGeometry x="882.2988505747127" width="127.70114942528735" height="152.6530612244898" as="geometry" />
        </mxCell>
        <mxCell id="HmDTK8kvEWGDyNGJV9-K-3" value="&lt;font style=&quot;font-size: 14px;&quot;&gt;Чарльз Дарвин&lt;/font&gt;" style="ellipse;whiteSpace=wrap;html=1;aspect=fixed;" vertex="1" parent="HmDTK8kvEWGDyNGJV9-K-2">
          <mxGeometry width="127.70114942528735" height="127.70114942528735" as="geometry" />
        </mxCell>
        <mxCell id="HmDTK8kvEWGDyNGJV9-K-4" value="&lt;font style=&quot;font-size: 18px;&quot;&gt;5&lt;/font&gt;" style="ellipse;whiteSpace=wrap;html=1;aspect=fixed;" vertex="1" parent="HmDTK8kvEWGDyNGJV9-K-2">
          <mxGeometry x="40.63218390804598" width="46.43678160919541" height="46.43678160919541" as="geometry" />
        </mxCell>
        <mxCell id="HmDTK8kvEWGDyNGJV9-K-5" value="" style="group" connectable="0" vertex="1" parent="HmDTK8kvEWGDyNGJV9-K-1">
          <mxGeometry y="263.6734693877551" width="127.70114942528735" height="152.6530612244898" as="geometry" />
        </mxCell>
        <mxCell id="HmDTK8kvEWGDyNGJV9-K-45" style="edgeStyle=orthogonalEdgeStyle;rounded=0;orthogonalLoop=1;jettySize=auto;html=1;exitX=0.5;exitY=0;exitDx=0;exitDy=0;fontFamily=Helvetica;fontSize=12;fontColor=default;" edge="1" parent="HmDTK8kvEWGDyNGJV9-K-5" source="HmDTK8kvEWGDyNGJV9-K-6">
          <mxGeometry relative="1" as="geometry">
            <mxPoint x="280" y="-133.67346938775512" as="targetPoint" />
            <Array as="points">
              <mxPoint x="64" y="-104" />
              <mxPoint x="280" y="-104" />
            </Array>
          </mxGeometry>
        </mxCell>
        <mxCell id="HmDTK8kvEWGDyNGJV9-K-6" value="&lt;font style=&quot;font-size: 14px;&quot;&gt;Дмитрий Менделеев&lt;/font&gt;" style="ellipse;whiteSpace=wrap;html=1;aspect=fixed;" vertex="1" parent="HmDTK8kvEWGDyNGJV9-K-5">
          <mxGeometry width="127.70114942528735" height="127.70114942528735" as="geometry" />
        </mxCell>
        <mxCell id="HmDTK8kvEWGDyNGJV9-K-7" value="&lt;font style=&quot;font-size: 18px;&quot;&gt;6&lt;/font&gt;" style="ellipse;whiteSpace=wrap;html=1;aspect=fixed;" vertex="1" parent="HmDTK8kvEWGDyNGJV9-K-5">
          <mxGeometry x="40.63218390804598" width="46.43678160919541" height="46.43678160919541" as="geometry" />
        </mxCell>
        <mxCell id="HmDTK8kvEWGDyNGJV9-K-8" value="" style="group" connectable="0" vertex="1" parent="HmDTK8kvEWGDyNGJV9-K-1">
          <mxGeometry x="220.57471264367817" y="263.6734693877551" width="127.70114942528735" height="152.6530612244898" as="geometry" />
        </mxCell>
        <mxCell id="HmDTK8kvEWGDyNGJV9-K-9" value="&lt;font style=&quot;font-size: 14px;&quot;&gt;Галилео Галилей&lt;/font&gt;" style="ellipse;whiteSpace=wrap;html=1;aspect=fixed;" vertex="1" parent="HmDTK8kvEWGDyNGJV9-K-8">
          <mxGeometry width="127.70114942528735" height="127.70114942528735" as="geometry" />
        </mxCell>
        <mxCell id="HmDTK8kvEWGDyNGJV9-K-10" value="&lt;font style=&quot;font-size: 18px;&quot;&gt;7&lt;/font&gt;" style="ellipse;whiteSpace=wrap;html=1;aspect=fixed;" vertex="1" parent="HmDTK8kvEWGDyNGJV9-K-8">
          <mxGeometry x="40.63218390804598" width="46.43678160919541" height="46.43678160919541" as="geometry" />
        </mxCell>
        <mxCell id="HmDTK8kvEWGDyNGJV9-K-11" value="" style="group" connectable="0" vertex="1" parent="HmDTK8kvEWGDyNGJV9-K-1">
          <mxGeometry x="439.98850574712645" y="263.6734693877551" width="127.70114942528735" height="152.6530612244898" as="geometry" />
        </mxCell>
        <mxCell id="HmDTK8kvEWGDyNGJV9-K-12" value="&lt;font style=&quot;font-size: 14px;&quot;&gt;Стивен Хокинг&lt;/font&gt;" style="ellipse;whiteSpace=wrap;html=1;aspect=fixed;" vertex="1" parent="HmDTK8kvEWGDyNGJV9-K-11">
          <mxGeometry width="127.70114942528735" height="127.70114942528735" as="geometry" />
        </mxCell>
        <mxCell id="HmDTK8kvEWGDyNGJV9-K-13" value="&lt;font style=&quot;font-size: 18px;&quot;&gt;8&lt;/font&gt;" style="ellipse;whiteSpace=wrap;html=1;aspect=fixed;" vertex="1" parent="HmDTK8kvEWGDyNGJV9-K-11">
          <mxGeometry x="40.63218390804598" width="46.43678160919541" height="46.43678160919541" as="geometry" />
        </mxCell>
        <mxCell id="HmDTK8kvEWGDyNGJV9-K-14" value="" style="group" connectable="0" vertex="1" parent="HmDTK8kvEWGDyNGJV9-K-1">
          <mxGeometry x="661.7241379310345" y="263.6734693877551" width="127.70114942528735" height="152.6530612244898" as="geometry" />
        </mxCell>
        <mxCell id="HmDTK8kvEWGDyNGJV9-K-15" value="&lt;font style=&quot;font-size: 14px;&quot;&gt;Розалинд Франклин&lt;/font&gt;" style="ellipse;whiteSpace=wrap;html=1;aspect=fixed;" vertex="1" parent="HmDTK8kvEWGDyNGJV9-K-14">
          <mxGeometry width="127.70114942528735" height="127.70114942528735" as="geometry" />
        </mxCell>
        <mxCell id="HmDTK8kvEWGDyNGJV9-K-16" value="&lt;font style=&quot;font-size: 18px;&quot;&gt;9&lt;/font&gt;" style="ellipse;whiteSpace=wrap;html=1;aspect=fixed;" vertex="1" parent="HmDTK8kvEWGDyNGJV9-K-14">
          <mxGeometry x="40.63218390804598" width="46.43678160919541" height="46.43678160919541" as="geometry" />
        </mxCell>
        <mxCell id="HmDTK8kvEWGDyNGJV9-K-17" value="" style="group" connectable="0" vertex="1" parent="HmDTK8kvEWGDyNGJV9-K-1">
          <mxGeometry x="882.2988505747127" y="263.6734693877551" width="127.70114942528735" height="152.6530612244898" as="geometry" />
        </mxCell>
        <mxCell id="HmDTK8kvEWGDyNGJV9-K-18" value="&lt;font style=&quot;font-size: 14px;&quot;&gt;Нильс Бор&lt;/font&gt;" style="ellipse;whiteSpace=wrap;html=1;aspect=fixed;" vertex="1" parent="HmDTK8kvEWGDyNGJV9-K-17">
          <mxGeometry width="127.70114942528735" height="127.70114942528735" as="geometry" />
        </mxCell>
        <mxCell id="HmDTK8kvEWGDyNGJV9-K-19" value="&lt;font style=&quot;font-size: 18px;&quot;&gt;10&lt;/font&gt;" style="ellipse;whiteSpace=wrap;html=1;aspect=fixed;" vertex="1" parent="HmDTK8kvEWGDyNGJV9-K-17">
          <mxGeometry x="40.63218390804598" width="46.43678160919541" height="46.43678160919541" as="geometry" />
        </mxCell>
        <mxCell id="HmDTK8kvEWGDyNGJV9-K-20" value="" style="group" connectable="0" vertex="1" parent="HmDTK8kvEWGDyNGJV9-K-1">
          <mxGeometry x="439.98850574712645" y="527.3469387755102" width="127.70114942528735" height="152.6530612244898" as="geometry" />
        </mxCell>
        <mxCell id="HmDTK8kvEWGDyNGJV9-K-21" value="&lt;font style=&quot;font-size: 14px;&quot;&gt;Рихард Фейнман&lt;/font&gt;" style="ellipse;whiteSpace=wrap;html=1;aspect=fixed;" vertex="1" parent="HmDTK8kvEWGDyNGJV9-K-20">
          <mxGeometry width="127.70114942528735" height="127.70114942528735" as="geometry" />
        </mxCell>
        <mxCell id="HmDTK8kvEWGDyNGJV9-K-22" value="&lt;font style=&quot;font-size: 18px;&quot;&gt;11&lt;/font&gt;" style="ellipse;whiteSpace=wrap;html=1;aspect=fixed;" vertex="1" parent="HmDTK8kvEWGDyNGJV9-K-20">
          <mxGeometry x="40.63218390804598" width="46.43678160919541" height="46.43678160919541" as="geometry" />
        </mxCell>
        <mxCell id="HmDTK8kvEWGDyNGJV9-K-23" value="" style="group" connectable="0" vertex="1" parent="HmDTK8kvEWGDyNGJV9-K-1">
          <mxGeometry width="127.70114942528735" height="152.6530612244898" as="geometry" />
        </mxCell>
        <mxCell id="HmDTK8kvEWGDyNGJV9-K-24" value="&lt;font style=&quot;font-size: 14px;&quot;&gt;Альберт Эйнштейн&lt;/font&gt;" style="ellipse;whiteSpace=wrap;html=1;aspect=fixed;" vertex="1" parent="HmDTK8kvEWGDyNGJV9-K-23">
          <mxGeometry width="127.70114942528735" height="127.70114942528735" as="geometry" />
        </mxCell>
        <mxCell id="HmDTK8kvEWGDyNGJV9-K-25" value="&lt;font style=&quot;font-size: 18px;&quot;&gt;1&lt;/font&gt;" style="ellipse;whiteSpace=wrap;html=1;aspect=fixed;" vertex="1" parent="HmDTK8kvEWGDyNGJV9-K-23">
          <mxGeometry x="40.63218390804598" width="46.43678160919541" height="46.43678160919541" as="geometry" />
        </mxCell>
        <mxCell id="HmDTK8kvEWGDyNGJV9-K-26" value="" style="group" connectable="0" vertex="1" parent="HmDTK8kvEWGDyNGJV9-K-1">
          <mxGeometry x="220.57471264367817" width="127.70114942528735" height="152.6530612244898" as="geometry" />
        </mxCell>
        <mxCell id="HmDTK8kvEWGDyNGJV9-K-27" value="&lt;font style=&quot;font-size: 14px;&quot;&gt;Мария Кюри&lt;/font&gt;" style="ellipse;whiteSpace=wrap;html=1;aspect=fixed;" vertex="1" parent="HmDTK8kvEWGDyNGJV9-K-26">
          <mxGeometry width="127.70114942528735" height="127.70114942528735" as="geometry" />
        </mxCell>
        <mxCell id="HmDTK8kvEWGDyNGJV9-K-28" value="&lt;font style=&quot;font-size: 18px;&quot;&gt;2&lt;/font&gt;" style="ellipse;whiteSpace=wrap;html=1;aspect=fixed;" vertex="1" parent="HmDTK8kvEWGDyNGJV9-K-26">
          <mxGeometry x="40.63218390804598" width="46.43678160919541" height="46.43678160919541" as="geometry" />
        </mxCell>
        <mxCell id="HmDTK8kvEWGDyNGJV9-K-29" value="" style="group" connectable="0" vertex="1" parent="HmDTK8kvEWGDyNGJV9-K-1">
          <mxGeometry x="441.14942528735634" width="127.70114942528735" height="152.6530612244898" as="geometry" />
        </mxCell>
        <mxCell id="HmDTK8kvEWGDyNGJV9-K-30" value="&lt;span style=&quot;font-size: 14px;&quot;&gt;Никола Тесла&lt;/span&gt;" style="ellipse;whiteSpace=wrap;html=1;aspect=fixed;" vertex="1" parent="HmDTK8kvEWGDyNGJV9-K-29">
          <mxGeometry width="127.70114942528735" height="127.70114942528735" as="geometry" />
        </mxCell>
        <mxCell id="HmDTK8kvEWGDyNGJV9-K-31" value="&lt;font style=&quot;font-size: 18px;&quot;&gt;3&lt;/font&gt;" style="ellipse;whiteSpace=wrap;html=1;aspect=fixed;" vertex="1" parent="HmDTK8kvEWGDyNGJV9-K-29">
          <mxGeometry x="40.63218390804598" width="46.43678160919541" height="46.43678160919541" as="geometry" />
        </mxCell>
        <mxCell id="HmDTK8kvEWGDyNGJV9-K-32" value="" style="group" connectable="0" vertex="1" parent="HmDTK8kvEWGDyNGJV9-K-1">
          <mxGeometry x="661.7241379310345" width="127.70114942528735" height="152.6530612244898" as="geometry" />
        </mxCell>
        <mxCell id="HmDTK8kvEWGDyNGJV9-K-33" value="&lt;font style=&quot;font-size: 14px;&quot;&gt;Исаак Ньютон&lt;/font&gt;" style="ellipse;whiteSpace=wrap;html=1;aspect=fixed;" vertex="1" parent="HmDTK8kvEWGDyNGJV9-K-32">
          <mxGeometry width="127.70114942528735" height="127.70114942528735" as="geometry" />
        </mxCell>
        <mxCell id="HmDTK8kvEWGDyNGJV9-K-34" value="&lt;font style=&quot;font-size: 18px;&quot;&gt;4&lt;/font&gt;" style="ellipse;whiteSpace=wrap;html=1;aspect=fixed;" vertex="1" parent="HmDTK8kvEWGDyNGJV9-K-32">
          <mxGeometry x="40.63218390804598" width="46.43678160919541" height="46.43678160919541" as="geometry" />
        </mxCell>
        <mxCell id="HmDTK8kvEWGDyNGJV9-K-35" style="edgeStyle=orthogonalEdgeStyle;rounded=0;orthogonalLoop=1;jettySize=auto;html=1;exitX=0.5;exitY=0;exitDx=0;exitDy=0;fontFamily=Helvetica;fontSize=12;fontColor=default;" edge="1" parent="HmDTK8kvEWGDyNGJV9-K-1" source="HmDTK8kvEWGDyNGJV9-K-10" target="HmDTK8kvEWGDyNGJV9-K-33">
          <mxGeometry relative="1" as="geometry" />
        </mxCell>
        <mxCell id="HmDTK8kvEWGDyNGJV9-K-36" style="edgeStyle=orthogonalEdgeStyle;rounded=0;orthogonalLoop=1;jettySize=auto;html=1;exitX=0.5;exitY=0;exitDx=0;exitDy=0;entryX=0.5;entryY=0;entryDx=0;entryDy=0;fontFamily=Helvetica;fontSize=12;fontColor=default;" edge="1" parent="HmDTK8kvEWGDyNGJV9-K-1" source="HmDTK8kvEWGDyNGJV9-K-33" target="HmDTK8kvEWGDyNGJV9-K-25">
          <mxGeometry relative="1" as="geometry" />
        </mxCell>
        <mxCell id="HmDTK8kvEWGDyNGJV9-K-38" style="edgeStyle=orthogonalEdgeStyle;rounded=0;orthogonalLoop=1;jettySize=auto;html=1;exitX=0;exitY=0.5;exitDx=0;exitDy=0;entryX=0.5;entryY=1;entryDx=0;entryDy=0;fontFamily=Helvetica;fontSize=12;fontColor=default;" edge="1" parent="HmDTK8kvEWGDyNGJV9-K-1" source="HmDTK8kvEWGDyNGJV9-K-24" target="HmDTK8kvEWGDyNGJV9-K-18">
          <mxGeometry relative="1" as="geometry" />
        </mxCell>
        <mxCell id="HmDTK8kvEWGDyNGJV9-K-39" style="edgeStyle=orthogonalEdgeStyle;rounded=0;orthogonalLoop=1;jettySize=auto;html=1;exitX=1;exitY=0.5;exitDx=0;exitDy=0;entryX=1;entryY=0.5;entryDx=0;entryDy=0;fontFamily=Helvetica;fontSize=12;fontColor=default;" edge="1" parent="HmDTK8kvEWGDyNGJV9-K-1" source="HmDTK8kvEWGDyNGJV9-K-18" target="HmDTK8kvEWGDyNGJV9-K-21">
          <mxGeometry relative="1" as="geometry" />
        </mxCell>
        <mxCell id="HmDTK8kvEWGDyNGJV9-K-41" style="edgeStyle=orthogonalEdgeStyle;rounded=0;orthogonalLoop=1;jettySize=auto;html=1;exitX=1;exitY=0.5;exitDx=0;exitDy=0;entryX=0.5;entryY=0;entryDx=0;entryDy=0;fontFamily=Helvetica;fontSize=12;fontColor=default;" edge="1" parent="HmDTK8kvEWGDyNGJV9-K-1" source="HmDTK8kvEWGDyNGJV9-K-27" target="HmDTK8kvEWGDyNGJV9-K-16">
          <mxGeometry relative="1" as="geometry">
            <Array as="points">
              <mxPoint x="348" y="240" />
              <mxPoint x="726" y="240" />
            </Array>
          </mxGeometry>
        </mxCell>
        <mxCell id="HmDTK8kvEWGDyNGJV9-K-42" style="edgeStyle=orthogonalEdgeStyle;rounded=0;orthogonalLoop=1;jettySize=auto;html=1;exitX=0.5;exitY=1;exitDx=0;exitDy=0;entryX=0.5;entryY=1;entryDx=0;entryDy=0;fontFamily=Helvetica;fontSize=12;fontColor=default;" edge="1" parent="HmDTK8kvEWGDyNGJV9-K-1" source="HmDTK8kvEWGDyNGJV9-K-15" target="HmDTK8kvEWGDyNGJV9-K-6">
          <mxGeometry relative="1" as="geometry">
            <Array as="points">
              <mxPoint x="726" y="470" />
              <mxPoint x="64" y="470" />
            </Array>
          </mxGeometry>
        </mxCell>
        <mxCell id="HmDTK8kvEWGDyNGJV9-K-43" style="edgeStyle=orthogonalEdgeStyle;rounded=0;orthogonalLoop=1;jettySize=auto;html=1;exitX=0.5;exitY=1;exitDx=0;exitDy=0;entryX=0.5;entryY=0;entryDx=0;entryDy=0;fontFamily=Helvetica;fontSize=12;fontColor=default;" edge="1" parent="HmDTK8kvEWGDyNGJV9-K-1" source="HmDTK8kvEWGDyNGJV9-K-30" target="HmDTK8kvEWGDyNGJV9-K-13">
          <mxGeometry relative="1" as="geometry" />
        </mxCell>
        <mxCell id="HmDTK8kvEWGDyNGJV9-K-44" style="edgeStyle=orthogonalEdgeStyle;rounded=0;orthogonalLoop=1;jettySize=auto;html=1;exitX=0.5;exitY=0;exitDx=0;exitDy=0;entryX=0.5;entryY=0;entryDx=0;entryDy=0;fontFamily=Helvetica;fontSize=12;fontColor=default;" edge="1" parent="HmDTK8kvEWGDyNGJV9-K-1" source="HmDTK8kvEWGDyNGJV9-K-4" target="HmDTK8kvEWGDyNGJV9-K-31">
          <mxGeometry relative="1" as="geometry">
            <Array as="points">
              <mxPoint x="946" y="-60" />
              <mxPoint x="505" y="-60" />
            </Array>
          </mxGeometry>
        </mxCell>
        <mxCell id="HmDTK8kvEWGDyNGJV9-K-47" style="edgeStyle=orthogonalEdgeStyle;rounded=0;orthogonalLoop=1;jettySize=auto;html=1;exitX=1;exitY=0.5;exitDx=0;exitDy=0;entryX=0.5;entryY=0;entryDx=0;entryDy=0;fontFamily=Helvetica;fontSize=12;fontColor=default;" edge="1" parent="HmDTK8kvEWGDyNGJV9-K-1" source="HmDTK8kvEWGDyNGJV9-K-24" target="HmDTK8kvEWGDyNGJV9-K-18">
          <mxGeometry relative="1" as="geometry">
            <Array as="points">
              <mxPoint x="128" y="220" />
              <mxPoint x="946" y="220" />
            </Array>
          </mxGeometry>
        </mxCell>
        <mxCell id="HmDTK8kvEWGDyNGJV9-K-48" style="edgeStyle=orthogonalEdgeStyle;rounded=0;orthogonalLoop=1;jettySize=auto;html=1;exitX=0.5;exitY=0;exitDx=0;exitDy=0;entryX=0.5;entryY=1;entryDx=0;entryDy=0;fontFamily=Helvetica;fontSize=12;fontColor=default;" edge="1" parent="HmDTK8kvEWGDyNGJV9-K-1" source="HmDTK8kvEWGDyNGJV9-K-22" target="HmDTK8kvEWGDyNGJV9-K-12">
          <mxGeometry relative="1" as="geometry" />
        </mxCell>
      </root>
    </mxGraphModel>
  </diagram>
</mxfile>
